<?xml version="1.0" encoding="utf-8"?>
<!DOCTYPE svg PUBLIC "-//W3C//DTD SVG 1.1//EN" "http://www.w3.org/Graphics/SVG/1.1/DTD/svg11.dtd"><svg xmlns="http://www.w3.org/2000/svg" xmlns:xlink="http://www.w3.org/1999/xlink"><symbol viewBox="0 0 30 30" id="markers--Burn_Area" xmlns="http://www.w3.org/2000/svg"><path fill="#989898" stroke="#676767" stroke-miterlimit="10" d="M17.8 14.8c1.6 0 2-.9 2-1.8s.8-3.7.8-5.5.8-4.2 2-4.2c1.3 0 1.7 2 1.7 4.2s-1.3 4.3 0 5.5c1.3 1.3 2 .5 3.4 1.8s2 4.7 1.3 5.5c-.8.9-2 4.8-3.9 4.8-1.7 0-3-.2-4-1.3-1-1-3.4-2-3.4-1.4 0 .8-.2 1.7.8 2.6 1 .9 1.4 2.8 0 2.8s-.5-.5-1.6-1.6-.9-2.3-3.1-2.9c-2.3-.8-3.3-4.2-5.4-4.2s-4.9.2-4.9-1.1 0-2.6-.9-3.4C1.7 13.8.2 12 1 11.2c.9-.9 1.6-.9 1.6-2.3s.1-4.5 1.1-4.5S5.6 8.8 6.6 10c1.2 1.2 5.7-.9 6.8.2s2.9 1.3 2.9 2.4c-.1 1 1.5 2.2 1.5 2.2z"/></symbol><symbol viewBox="0 0 32 32" id="markers--closure--Airport_Closure" xmlns="http://www.w3.org/2000/svg"><circle fill="#FFF" cx="16" cy="16" r="15"/><path d="M25 16c0-.7-.6-1-1.4-1h-4.9l-4.5-8h-1.8l2.2 8h-5l-1.3-2H7l1.3 3L7 19h1.3l1.3-2h5l-2.2 8h1.8l4.5-8h4.9c.8 0 1.4-.3 1.4-1z"/><path fill="#ED2F22" d="M16 0C7.2 0 0 7.2 0 16s7.2 16 16 16 16-7.2 16-16S24.8 0 16 0zM2 16C2 8.3 8.3 2 16 2c3.8 0 7.2 1.5 9.7 3.9L5.9 25.7C3.5 23.2 2 19.8 2 16zm14 14c-3.2 0-6.2-1.1-8.6-3L27 7.4c1.9 2.4 3 5.4 3 8.6 0 7.7-6.3 14-14 14z"/></symbol><symbol viewBox="0 0 30 30" id="markers--closure--Other_Closed" xmlns="http://www.w3.org/2000/svg"><circle fill="#FFF" cx="15" cy="15" r="14.1"/><path fill="#ED2F22" d="M15 0C6.8 0 0 6.8 0 15s6.7 15 15 15 15-6.7 15-15S23.2 0 15 0zM1.9 15C1.9 7.8 7.8 1.9 15 1.9c3.6 0 6.7 1.4 9.1 3.7L5.5 24.1c-2.2-2.4-3.6-5.5-3.6-9.1zM15 28.1c-3 0-5.8-1-8.1-2.8L25.3 6.9c1.8 2.2 2.8 5.1 2.8 8.1 0 7.2-5.9 13.1-13.1 13.1z"/></symbol><symbol viewBox="0 0 30 30" id="markers--closure--Park_Closed" xmlns="http://www.w3.org/2000/svg"><circle fill="#FFF" cx="15" cy="15" r="14.1"/><path d="M16.1 25.4v-7l1.5-.7c.6.4 1.2.7 2 .7 2 0 3.5-1.6 3.5-3.5 0-1.4-.8-2.7-2.2-3.2.3-.5.4-.9.4-1.4 0-1.6-1.3-2.9-2.9-2.9-.6 0-1 .2-1.4.4-.5-1.4-1.8-2.2-3.2-2.2-1.8 0-3.2 1.3-3.5 3-2.3.6-4.1 2.7-4.1 5.2 0 2.9 2.3 5.2 5.2 5.2.8 0 1.6-.2 2.3-.6v6.9c.1.1 2.4.1 2.4.1z"/><path fill="#ED2F22" d="M15 0C6.8 0 0 6.8 0 15s6.7 15 15 15 15-6.7 15-15S23.2 0 15 0zM1.9 15C1.9 7.8 7.8 1.9 15 1.9c3.6 0 6.7 1.4 9.1 3.7L5.5 24.1c-2.2-2.4-3.6-5.5-3.6-9.1zM15 28.1c-3 0-5.8-1-8.1-2.8L25.3 6.9c1.8 2.2 2.8 5.1 2.8 8.1 0 7.2-5.9 13.1-13.1 13.1z"/></symbol><symbol viewBox="0 0 32 32" id="markers--closure--Port_Closure" xmlns="http://www.w3.org/2000/svg"><circle fill="#FFF" cx="16" cy="16" r="15"/><path d="M23 17v-2h-2v-4l-3 .5V15h-1v-4l-2 .5V15h-1v-4l-3 .5V15H9v2H4l4 5h16.1l3.9-5z"/><path fill="#ED2F22" d="M16 0C7.2 0 0 7.2 0 16s7.2 16 16 16 16-7.2 16-16S24.8 0 16 0zM2 16C2 8.3 8.3 2 16 2c3.8 0 7.2 1.5 9.7 3.9L5.9 25.7C3.5 23.2 2 19.8 2 16zm14 14c-3.2 0-6.2-1.1-8.6-3L27 7.4c1.9 2.4 3 5.4 3 8.6 0 7.7-6.3 14-14 14z"/></symbol><symbol viewBox="0 0 30 30" id="markers--closure--Rail_Disruptions" xmlns="http://www.w3.org/2000/svg"><circle fill="#FFF" cx="15" cy="15" r="14.1"/><circle cx="8.4" cy="18.8" r="1.9"/><circle cx="13.1" cy="18.8" r="1.9"/><circle cx="17.8" cy="18.8" r="1.9"/><path d="M25.3 20.6h-4.7v-4.7h-15v-2.8h-.9v-1.9H11.9l.7 1.9h1.3v-1.9h2v1.9h1V9.4h2.8v3.7h3.7v3z"/><path fill="#ED2F22" d="M15 0C6.8 0 0 6.8 0 15s6.8 15 15 15 15-6.8 15-15S23.2 0 15 0zM1.9 15C1.9 7.8 7.8 1.9 15 1.9c3.6 0 6.8 1.4 9.1 3.7L5.5 24.1c-2.2-2.3-3.6-5.5-3.6-9.1zM15 28.1c-3 0-5.8-1-8.1-2.8L25.3 6.9c1.8 2.2 2.8 5.1 2.8 8.1 0 7.2-5.9 13.1-13.1 13.1z"/></symbol><symbol viewBox="0 0 30 30" id="markers--closure--Road_Closed" xmlns="http://www.w3.org/2000/svg"><circle fill="#FFF" cx="15" cy="15" r="14.1"/><path d="M18.9 1.9H11L4.8 25.8 15 30l10.2-4.1-6.3-24zm-3 .9l.1 1.9h-2l.1-1.9h1.8zm-2.3 8.5l.3-4.7h2.3l.3 4.7h-2.9zm2.9 1.8l.5 8.4h-4l.5-8.4h3zm-3.8 15l.2-3.7h4.2l.2 3.7h-4.6z"/><path fill="#ED2F22" d="M15 0C6.8 0 0 6.8 0 15s6.7 15 15 15 15-6.7 15-15S23.2 0 15 0zM1.9 15C1.9 7.8 7.8 1.9 15 1.9c3.6 0 6.7 1.4 9.1 3.7L5.5 24.1c-2.2-2.4-3.6-5.5-3.6-9.1zM15 28.1c-3 0-5.8-1-8.1-2.8L25.3 6.9c1.8 2.2 2.8 5.1 2.8 8.1 0 7.2-5.9 13.1-13.1 13.1z"/></symbol><symbol viewBox="0 0 30 30" id="markers--closure--Road_Works" xmlns="http://www.w3.org/2000/svg"><path fill="#fff" d="M.54 15.544L15.558.526l13.614 13.615-15.018 15.018z"/><g transform="translate(.277 -.176) scale(.29989)"><circle cx="43.84" cy="30.718" r="3.206"/><path d="M40.727 50.277c-.173-1.067-.253-2.247-.092-3.374.17-1.19.831-2.707 1.501-4.255l2.674 8.53a1.95 1.95 0 1 0 3.721-1.167L44.484 37.1a1.93 1.93 0 0 0-.762-1.018c-.301-.295-.71-.698-.741-.712-1.525-.704-3.753-.43-3.753-.43s-1.115-.078-1.72-.078h-6.411a1.88 1.88 0 0 0-1.498.745l-5.317 7.037a1.878 1.878 0 0 0 2.995 2.263l4.753-6.291h3.748c-.365.478-.728.998-1.086 1.564a16.255 16.255 0 0 0-2.395 6.876l-5.056 16.967a1.95 1.95 0 0 0 3.738 1.114l3.704-12.432c.221-.564.43-1.488 1.525-1.013l8.561 13.933a1.878 1.878 0 0 0 3.301-1.789l-7.343-13.559z"/></g><path d="M17.184 17.03a.29.29 0 0 1-.128-.03l-8.698-4.238a.292.292 0 1 1 .256-.525l8.698 4.24a.292.292 0 0 1-.128.554z"/><path d="M14.972 19.673c-.05.09-.007.165.097.165h7.89c.104 0 .146-.074.095-.164l-2.48-4.327a.36.36 0 0 0-.282-.163h-2.62a.354.354 0 0 0-.28.164l-2.42 4.325z"/><g><path d="M14.999 30.1a5.02 5.02 0 0 1-3.575-1.476l-9.848-9.848A5.019 5.019 0 0 1 .1 15.201a5.02 5.02 0 0 1 1.476-3.575l9.848-9.847A5.019 5.019 0 0 1 14.999.303a5.02 5.02 0 0 1 3.575 1.476l9.848 9.847a5.062 5.062 0 0 1 0 7.15l-9.849 9.848A5.018 5.018 0 0 1 15 30.1zm0-27.176c-.653 0-1.264.252-1.722.708L3.43 13.48a2.417 2.417 0 0 0-.708 1.721c0 .653.251 1.264.708 1.722l9.847 9.847c.914.913 2.529.913 3.443 0l9.848-9.847a2.439 2.439 0 0 0 0-3.444L16.72 3.632a2.417 2.417 0 0 0-1.721-.708z"/></g></symbol><symbol viewBox="0 0 30 30" id="markers--closure--School_Closure" xmlns="http://www.w3.org/2000/svg"><circle fill="#FFF" cx="15" cy="15" r="14.1"/><path d="M18.7 16.1l-4.5 1.8-5.8-2.3v2.3l5.8 2.7 4.5-1.9z"/><path d="M21.6 12.9l1.8-.7-9.3-2.8-9.4 2.8 9.4 3.7 5.6-2.2v5h-1v4.7h3.8v-4.7h-.9z"/><path fill="#ED2F22" d="M15 0C6.8 0 0 6.8 0 15s6.7 15 15 15 15-6.7 15-15S23.2 0 15 0zM1.9 15C1.9 7.8 7.8 1.9 15 1.9c3.6 0 6.7 1.4 9.1 3.7L5.5 24.1c-2.2-2.4-3.6-5.5-3.6-9.1zM15 28.1c-3 0-5.8-1-8.1-2.8L25.3 6.9c1.8 2.2 2.8 5.1 2.8 8.1 0 7.2-5.9 13.1-13.1 13.1z"/></symbol><symbol viewBox="0 0 30 30" id="markers--closure--Total_Fire_Ban" xmlns="http://www.w3.org/2000/svg"><path fill="#FFF" d="M15.8-.3L.3 15.2l15.6 15.4 15.5-15.5z"/><g transform="scale(3)"><circle fill="#FFF" cx="5" cy="5" r="5"/><path fill="#ED2F22" d="M5 0C2.3 0 0 2.3 0 5s2.2 5 5 5 5-2.2 5-5-2.3-5-5-5zM.7 5C.7 2.6 2.7.6 5.1.6c1.2 0 2.2.5 3 1.2L1.9 8C1.1 7.2.7 6.2.7 5zM5 9.3c-1 0-1.9-.3-2.7-.9l6.1-6.1c.6.8 1 1.7 1 2.7 0 2.4-2 4.3-4.4 4.3z"/></g><path d="M14.4 20.7s-4.2-2.4-4.2-5.6S13.8 11 14.4 9l.6-2s2.1 1.5 2 3.7c-.1 1.9-.7 2.9-.7 2.9s1.8.5 2.3-2.9c0 0 3.6 2.9 2.2 6.2-1.4 3.3-3.6 3.7-3.6 3.7.3-3.3-1.6-3.2-.6-4.7 0 0-1-.3-1.7.7-.7 1.1-.9 1.8-.5 4.1z"/></symbol><symbol viewBox="0 0 30 30" id="markers--closure--Track_Closed" xmlns="http://www.w3.org/2000/svg"><circle fill="#FFF" cx="15" cy="15" r="14.1"/><path d="M18.9 1.9H11L4.8 25.8 15 30l10.2-4.1-6.3-24zm-3 .9l.1 1.9h-2l.1-1.9h1.8zm-2.3 8.4l.3-4.7h2.3l.3 4.7h-2.9zm2.9 1.9l.5 8.4h-4l.5-8.4h3zm-3.8 15l.2-3.8h4.2l.2 3.8h-4.6z"/><path fill="#ED2F22" d="M15 0C6.8 0 0 6.8 0 15s6.8 15 15 15 15-6.8 15-15S23.2 0 15 0zM1.9 15C1.9 7.8 7.8 1.9 15 1.9c3.6 0 6.8 1.4 9.1 3.7L5.5 24.1c-2.2-2.3-3.6-5.5-3.6-9.1zM15 28.1c-3 0-5.8-1-8.1-2.8L25.3 6.9c1.8 2.2 2.8 5.1 2.8 8.1 0 7.2-5.9 13.1-13.1 13.1z"/></symbol><symbol viewBox="0 0 30 30" id="markers--cluster" xmlns="http://www.w3.org/2000/svg"><circle fill="#09F" stroke="#FFF" cx="8.1" cy="8.1" r="7"/><path fill="none" stroke="#FFF" stroke-width="2" d="M8.1 3.1v10M3.1 8.1h10"/></symbol><symbol viewBox="0 0 30 30" id="markers--community--Community_Document" xmlns="http://www.w3.org/2000/svg"><circle fill="#007500" stroke="#FFF" stroke-width="2" stroke-linejoin="round" stroke-miterlimit="10" cx="15" cy="15" r="13.8"/><g fill="#FFF"><circle cx="10" cy="12.2" r="1.8"/><path d="M11.2 17.8c0-.7.2-1.4 1.1-1.6v-.3c0-.4-.3-.8-.6-.8H8.3c-.4 0-.6.5-.6.8v4c0 .4.3.6.6.6h3c-.1 0-.1-2.8-.1-2.7z"/><circle cx="19.9" cy="12.2" r="1.8"/><path d="M21.4 20.5h.2c.4 0 .7-.7.7-1.1v-3.6c0-.4-.4-.8-.7-.8h-3.2c-.4 0-.6.5-.6.8v.3c.9.3.9.9.9 1.6v2.8h2.7zM16.6 23.2h.3c.4 0 .8-.5.8-.8v-4.7c0-.4-.5-.9-.8-.9H13c-.4 0-.7.5-.7.9v4.7c0 .4.4.8.7.8H16.6z"/><circle cx="15" cy="14" r="1.8"/><circle cx="15" cy="9.5" r="1.8"/></g><g><circle fill="#007500" cx="15" cy="15" r="13.1"/><path fill="#FFF" d="M15 29C7.3 29 1 22.7 1 15S7.3 1 15 1s14 6.3 14 14-6.3 14-14 14zm0-26.2C8.3 2.8 2.8 8.3 2.8 15S8.3 27.2 15 27.2 27.2 21.7 27.2 15 21.7 2.8 15 2.8z"/><path fill="#FFF" d="M9.8 8.9v12.2h10.5V8.9H9.8zm1.7 2.6H15v1.8h-3.5v-1.8zm7 7h-7v-1.8h7v1.8zm0-2.6h-7v-1.8h7v1.8z"/></g></symbol><symbol viewBox="0 0 30 30" id="markers--community--Community_Information_Point" xmlns="http://www.w3.org/2000/svg"><circle fill="#007500" stroke="#FFF" stroke-width="2" stroke-linejoin="round" stroke-miterlimit="10" cx="15" cy="15" r="13.8"/><g fill="#FFF"><circle cx="10" cy="12.2" r="1.8"/><path d="M11.2 17.8c0-.7.2-1.4 1.1-1.6v-.3c0-.4-.3-.8-.6-.8H8.3c-.4 0-.6.5-.6.8v4c0 .4.3.6.6.6h3c-.1 0-.1-2.8-.1-2.7z"/><circle cx="19.9" cy="12.2" r="1.8"/><path d="M21.4 20.5h.2c.4 0 .7-.7.7-1.1v-3.6c0-.4-.4-.8-.7-.8h-3.2c-.4 0-.6.5-.6.8v.3c.9.3.9.9.9 1.6v2.8h2.7zM16.6 23.2h.3c.4 0 .8-.5.8-.8v-4.7c0-.4-.5-.9-.8-.9H13c-.4 0-.7.5-.7.9v4.7c0 .4.4.8.7.8H16.6z"/><circle cx="15" cy="14" r="1.8"/><circle cx="15" cy="9.5" r="1.8"/></g><g><circle fill="#007500" cx="15" cy="15" r="13.1"/><path fill="#FFF" d="M15 29C7.3 29 1 22.7 1 15S7.3 1 15 1s14 6.3 14 14-6.3 14-14 14zm0-26.2C8.3 2.8 2.8 8.3 2.8 15S8.3 27.2 15 27.2 27.2 21.7 27.2 15 21.7 2.8 15 2.8z"/><path fill="#FFF" d="M9.8 8.9v12.2h10.5V8.9H9.8zm1.7 2.6H15v1.8h-3.5v-1.8zm7 7h-7v-1.8h7v1.8zm0-2.6h-7v-1.8h7v1.8z"/></g><g><circle fill="#007500" cx="15" cy="15" r="13.1"/><path fill="#FFF" d="M16.3 7.8c1 0 1.4.6 1.4 1.4 0 .9-.8 1.8-1.8 1.8-.9 0-1.4-.5-1.4-1.4 0-.8.6-1.8 1.8-1.8zm-2.9 14c-.7 0-1.3-.4-.8-2.4l.9-3.6c.2-.6.2-.8 0-.8-.3 0-1.2.4-1.8.8l-.3-.6c1.8-1.5 3.9-2.5 4.7-2.5.7 0 .9.9.5 2.3l-1 3.8c-.2.7-.1.9.1.9.3 0 1-.3 1.7-.9l.4.6c-1.7 1.7-3.7 2.4-4.4 2.4z"/><path fill="#FFF" d="M15 29C7.3 29 1 22.7 1 15S7.3 1 15 1s14 6.3 14 14-6.3 14-14 14zm0-26.2C8.3 2.8 2.8 8.3 2.8 15S8.3 27.2 15 27.2 27.2 21.7 27.2 15 21.7 2.8 15 2.8z"/></g></symbol><symbol viewBox="0 0 30 30" id="markers--community--Community_Refuge" xmlns="http://www.w3.org/2000/svg"><circle fill="#007500" stroke="#FFF" stroke-width="2" stroke-linejoin="round" stroke-miterlimit="10" cx="15" cy="15" r="13.8"/><g fill="#FFF"><circle cx="10" cy="12.2" r="1.8"/><path d="M11.2 17.8c0-.7.2-1.4 1.1-1.6v-.3c0-.4-.3-.8-.6-.8H8.3c-.4 0-.6.5-.6.8v4c0 .4.3.6.6.6h3c-.1 0-.1-2.8-.1-2.7z"/><circle cx="19.9" cy="12.2" r="1.8"/><path d="M21.4 20.5h.2c.4 0 .7-.7.7-1.1v-3.6c0-.4-.4-.8-.7-.8h-3.2c-.4 0-.6.5-.6.8v.3c.9.3.9.9.9 1.6v2.8h2.7zM16.6 23.2h.3c.4 0 .8-.5.8-.8v-4.7c0-.4-.5-.9-.8-.9H13c-.4 0-.7.5-.7.9v4.7c0 .4.4.8.7.8H16.6z"/><circle cx="15" cy="14" r="1.8"/><circle cx="15" cy="9.5" r="1.8"/></g><circle fill="#007500" cx="15" cy="15" r="13.1"/><path fill="#FFF" d="M15 29C7.3 29 1 22.7 1 15S7.3 1 15 1s14 6.3 14 14-6.3 14-14 14zm0-26.2C8.3 2.8 2.8 8.3 2.8 15S8.3 27.2 15 27.2 27.2 21.7 27.2 15 21.7 2.8 15 2.8z"/><path fill="#FFF" d="M9.8 8.9v12.2h10.5V8.9H9.8zm1.7 2.6H15v1.8h-3.5v-1.8zm7 7h-7v-1.8h7v1.8zm0-2.6h-7v-1.8h7v1.8z"/><g><circle fill="#007500" cx="15" cy="15" r="13.1"/><path fill="#FFF" d="M16.3 7.8c1 0 1.4.6 1.4 1.4 0 .9-.8 1.8-1.8 1.8-.9 0-1.4-.5-1.4-1.4 0-.8.6-1.8 1.8-1.8zm-2.9 14c-.7 0-1.3-.4-.8-2.4l.9-3.6c.2-.6.2-.8 0-.8-.3 0-1.2.4-1.8.8l-.3-.6c1.8-1.5 3.9-2.5 4.7-2.5.7 0 .9.9.5 2.3l-1 3.8c-.2.7-.1.9.1.9.3 0 1-.3 1.7-.9l.4.6c-1.7 1.7-3.7 2.4-4.4 2.4z"/><path fill="#FFF" d="M15 29C7.3 29 1 22.7 1 15S7.3 1 15 1s14 6.3 14 14-6.3 14-14 14zm0-26.2C8.3 2.8 2.8 8.3 2.8 15S8.3 27.2 15 27.2 27.2 21.7 27.2 15 21.7 2.8 15 2.8z"/></g><g><circle fill="#1E5DA7" stroke="#FFF" stroke-width="2" stroke-linejoin="round" stroke-miterlimit="10" cx="15" cy="15" r="14"/><path fill="#FFF" d="M7.5 22.5h14.9v.9H7.5zM21.5 22.5h1V12.2l-1-.9zM7.5 12.2h.9v10.3h-.9z"/><g fill="#FFF"><circle cx="11.3" cy="12.9" r="1.7"/><path d="M12.2 16.8c0-.6 0-.9.9-1.1v-.2c0-.3-.5-.4-.7-.4h-1.5c-.3 0-.6.1-.6.4v3.1c0 .3.2.3.6.3H12.1c0-.2.1-2.2.1-2.1z"/><circle cx="18.8" cy="12.9" r="1.6"/><path d="M19 18.7c.4 0 .7-.3.7-.7v-2.7c0-.3-.3-.4-.6-.4h-1.5c-.3 0-.7.1-.7.4v.2c.9.2.9.7.9 1.2v1.9l1.2.1z"/><circle cx="15" cy="14.2" r="1.7"/><circle cx="15" cy="11.1" r="1.6"/></g><path fill="#FFF" d="M13.7 16.9h2.8v4.7h-2.8zM7.5 13.1H5.7L15 4.7l9.3 8.4h-1.8L15 6.6z"/></g></symbol><symbol viewBox="0 0 30 30" id="markers--community--Community_Relief_Centre" xmlns="http://www.w3.org/2000/svg"><circle fill="#007500" stroke="#FFF" stroke-width="2" stroke-linejoin="round" stroke-miterlimit="10" cx="15" cy="15" r="13.8"/><g fill="#FFF"><circle cx="10" cy="12.2" r="1.8"/><path d="M11.2 17.8c0-.7.2-1.4 1.1-1.6v-.3c0-.4-.3-.8-.6-.8H8.3c-.4 0-.6.5-.6.8v4c0 .4.3.6.6.6h3c-.1 0-.1-2.8-.1-2.7z"/><circle cx="19.9" cy="12.2" r="1.8"/><path d="M21.4 20.5h.2c.4 0 .7-.7.7-1.1v-3.6c0-.4-.4-.8-.7-.8h-3.2c-.4 0-.6.5-.6.8v.3c.9.3.9.9.9 1.6v2.8h2.7zM16.6 23.2h.3c.4 0 .8-.5.8-.8v-4.7c0-.4-.5-.9-.8-.9H13c-.4 0-.7.5-.7.9v4.7c0 .4.4.8.7.8H16.6z"/><circle cx="15" cy="14" r="1.8"/><circle cx="15" cy="9.5" r="1.8"/></g><circle fill="#007500" cx="15" cy="15" r="13.1"/><path fill="#FFF" d="M15 29C7.3 29 1 22.7 1 15S7.3 1 15 1s14 6.3 14 14-6.3 14-14 14zm0-26.2C8.3 2.8 2.8 8.3 2.8 15S8.3 27.2 15 27.2 27.2 21.7 27.2 15 21.7 2.8 15 2.8z"/><path fill="#FFF" d="M9.8 8.9v12.2h10.5V8.9H9.8zm1.7 2.6H15v1.8h-3.5v-1.8zm7 7h-7v-1.8h7v1.8zm0-2.6h-7v-1.8h7v1.8z"/><g><circle fill="#007500" cx="15" cy="15" r="13.1"/><path fill="#FFF" d="M16.3 7.8c1 0 1.4.6 1.4 1.4 0 .9-.8 1.8-1.8 1.8-.9 0-1.4-.5-1.4-1.4 0-.8.6-1.8 1.8-1.8zm-2.9 14c-.7 0-1.3-.4-.8-2.4l.9-3.6c.2-.6.2-.8 0-.8-.3 0-1.2.4-1.8.8l-.3-.6c1.8-1.5 3.9-2.5 4.7-2.5.7 0 .9.9.5 2.3l-1 3.8c-.2.7-.1.9.1.9.3 0 1-.3 1.7-.9l.4.6c-1.7 1.7-3.7 2.4-4.4 2.4z"/><path fill="#FFF" d="M15 29C7.3 29 1 22.7 1 15S7.3 1 15 1s14 6.3 14 14-6.3 14-14 14zm0-26.2C8.3 2.8 2.8 8.3 2.8 15S8.3 27.2 15 27.2 27.2 21.7 27.2 15 21.7 2.8 15 2.8z"/></g><g><circle fill="#1E5DA7" stroke="#FFF" stroke-width="2" stroke-linejoin="round" stroke-miterlimit="10" cx="15" cy="15" r="14"/><path fill="#FFF" d="M7.5 22.5h14.9v.9H7.5zM21.5 22.5h1V12.2l-1-.9zM7.5 12.2h.9v10.3h-.9z"/><g fill="#FFF"><circle cx="11.3" cy="12.9" r="1.7"/><path d="M12.2 16.8c0-.6 0-.9.9-1.1v-.2c0-.3-.5-.4-.7-.4h-1.5c-.3 0-.6.1-.6.4v3.1c0 .3.2.3.6.3H12.1c0-.2.1-2.2.1-2.1z"/><circle cx="18.8" cy="12.9" r="1.6"/><path d="M19 18.7c.4 0 .7-.3.7-.7v-2.7c0-.3-.3-.4-.6-.4h-1.5c-.3 0-.7.1-.7.4v.2c.9.2.9.7.9 1.2v1.9l1.2.1z"/><circle cx="15" cy="14.2" r="1.7"/><circle cx="15" cy="11.1" r="1.6"/></g><path fill="#FFF" d="M13.7 16.9h2.8v4.7h-2.8zM7.5 13.1H5.7L15 4.7l9.3 8.4h-1.8L15 6.6z"/></g><g><circle fill="#007500" stroke="#FFF" stroke-width="2" stroke-linejoin="round" stroke-miterlimit="10" cx="15" cy="15" r="14"/><path fill="#FFF" d="M7.5 22.5h14.9v.9H7.5zM21.5 22.5h1V12.2l-1-.9zM7.5 12.2h.9v10.3h-.9z"/><g fill="#FFF"><circle cx="11.3" cy="12.9" r="1.7"/><path d="M12.2 16.8c0-.6 0-.9.9-1.1v-.2c0-.3-.5-.4-.7-.4h-1.5c-.3 0-.6.1-.6.4v3.1c0 .3.2.3.6.3H12.1c0-.2.1-2.2.1-2.1z"/><circle cx="18.8" cy="12.9" r="1.6"/><path d="M19 18.7c.4 0 .7-.3.7-.7v-2.7c0-.3-.3-.4-.6-.4h-1.5c-.3 0-.7.1-.7.4v.2c.9.2.9.7.9 1.2v1.9l1.2.1z"/><circle cx="15" cy="14.2" r="1.7"/><circle cx="15" cy="11.1" r="1.6"/></g><path fill="#FFF" d="M13.7 16.9h2.8v4.7h-2.8zM7.5 13.1H5.7L15 4.7l9.3 8.4h-1.8L15 6.6z"/></g></symbol><symbol viewBox="0 0 30 30" id="markers--community--Community_Siren" xmlns="http://www.w3.org/2000/svg"><circle fill="#007500" stroke="#FFF" stroke-width="2" stroke-linejoin="round" stroke-miterlimit="10" cx="15" cy="15" r="13.8"/><g fill="#FFF"><circle cx="10" cy="12.2" r="1.8"/><path d="M11.2 17.8c0-.7.2-1.4 1.1-1.6v-.3c0-.4-.3-.8-.6-.8H8.3c-.4 0-.6.5-.6.8v4c0 .4.3.6.6.6h3c-.1 0-.1-2.8-.1-2.7z"/><circle cx="19.9" cy="12.2" r="1.8"/><path d="M21.4 20.5h.2c.4 0 .7-.7.7-1.1v-3.6c0-.4-.4-.8-.7-.8h-3.2c-.4 0-.6.5-.6.8v.3c.9.3.9.9.9 1.6v2.8h2.7zM16.6 23.2h.3c.4 0 .8-.5.8-.8v-4.7c0-.4-.5-.9-.8-.9H13c-.4 0-.7.5-.7.9v4.7c0 .4.4.8.7.8H16.6z"/><circle cx="15" cy="14" r="1.8"/><circle cx="15" cy="9.5" r="1.8"/></g><circle fill="#007500" cx="15" cy="15" r="13.1"/><path fill="#FFF" d="M15 29C7.3 29 1 22.7 1 15S7.3 1 15 1s14 6.3 14 14-6.3 14-14 14zm0-26.2C8.3 2.8 2.8 8.3 2.8 15S8.3 27.2 15 27.2 27.2 21.7 27.2 15 21.7 2.8 15 2.8z"/><path fill="#FFF" d="M9.8 8.9v12.2h10.5V8.9H9.8zm1.7 2.6H15v1.8h-3.5v-1.8zm7 7h-7v-1.8h7v1.8zm0-2.6h-7v-1.8h7v1.8z"/><g><circle fill="#007500" cx="15" cy="15" r="13.1"/><path fill="#FFF" d="M16.3 7.8c1 0 1.4.6 1.4 1.4 0 .9-.8 1.8-1.8 1.8-.9 0-1.4-.5-1.4-1.4 0-.8.6-1.8 1.8-1.8zm-2.9 14c-.7 0-1.3-.4-.8-2.4l.9-3.6c.2-.6.2-.8 0-.8-.3 0-1.2.4-1.8.8l-.3-.6c1.8-1.5 3.9-2.5 4.7-2.5.7 0 .9.9.5 2.3l-1 3.8c-.2.7-.1.9.1.9.3 0 1-.3 1.7-.9l.4.6c-1.7 1.7-3.7 2.4-4.4 2.4z"/><path fill="#FFF" d="M15 29C7.3 29 1 22.7 1 15S7.3 1 15 1s14 6.3 14 14-6.3 14-14 14zm0-26.2C8.3 2.8 2.8 8.3 2.8 15S8.3 27.2 15 27.2 27.2 21.7 27.2 15 21.7 2.8 15 2.8z"/></g><g><circle fill="#1E5DA7" stroke="#FFF" stroke-width="2" stroke-linejoin="round" stroke-miterlimit="10" cx="15" cy="15" r="14"/><path fill="#FFF" d="M7.5 22.5h14.9v.9H7.5zM21.5 22.5h1V12.2l-1-.9zM7.5 12.2h.9v10.3h-.9z"/><g fill="#FFF"><circle cx="11.3" cy="12.9" r="1.7"/><path d="M12.2 16.8c0-.6 0-.9.9-1.1v-.2c0-.3-.5-.4-.7-.4h-1.5c-.3 0-.6.1-.6.4v3.1c0 .3.2.3.6.3H12.1c0-.2.1-2.2.1-2.1z"/><circle cx="18.8" cy="12.9" r="1.6"/><path d="M19 18.7c.4 0 .7-.3.7-.7v-2.7c0-.3-.3-.4-.6-.4h-1.5c-.3 0-.7.1-.7.4v.2c.9.2.9.7.9 1.2v1.9l1.2.1z"/><circle cx="15" cy="14.2" r="1.7"/><circle cx="15" cy="11.1" r="1.6"/></g><path fill="#FFF" d="M13.7 16.9h2.8v4.7h-2.8zM7.5 13.1H5.7L15 4.7l9.3 8.4h-1.8L15 6.6z"/></g><g><circle fill="#007500" stroke="#FFF" stroke-width="2" stroke-linejoin="round" stroke-miterlimit="10" cx="15" cy="15" r="14"/><path fill="#FFF" d="M7.5 22.5h14.9v.9H7.5zM21.5 22.5h1V12.2l-1-.9zM7.5 12.2h.9v10.3h-.9z"/><g fill="#FFF"><circle cx="11.3" cy="12.9" r="1.7"/><path d="M12.2 16.8c0-.6 0-.9.9-1.1v-.2c0-.3-.5-.4-.7-.4h-1.5c-.3 0-.6.1-.6.4v3.1c0 .3.2.3.6.3H12.1c0-.2.1-2.2.1-2.1z"/><circle cx="18.8" cy="12.9" r="1.6"/><path d="M19 18.7c.4 0 .7-.3.7-.7v-2.7c0-.3-.3-.4-.6-.4h-1.5c-.3 0-.7.1-.7.4v.2c.9.2.9.7.9 1.2v1.9l1.2.1z"/><circle cx="15" cy="14.2" r="1.7"/><circle cx="15" cy="11.1" r="1.6"/></g><path fill="#FFF" d="M13.7 16.9h2.8v4.7h-2.8zM7.5 13.1H5.7L15 4.7l9.3 8.4h-1.8L15 6.6z"/></g><g><circle fill="#007500" cx="15" cy="15" r="13.1"/><path fill="#FFF" d="M15 29C7.3 29 1 22.7 1 15S7.3 1 15 1s14 6.3 14 14-6.3 14-14 14zm0-26.2C8.3 2.8 2.8 8.3 2.8 15S8.3 27.2 15 27.2 27.2 21.7 27.2 15 21.7 2.8 15 2.8z"/><g fill="#FFF"><path d="M10.3 15.3c.1 1.2.2 2.5.3 3.8v1.1h2.3l-.5-4.7 1 .2 3.2 1.3V9.8l-3.1 1.4-4.3.7c-1 .1-1.3.8-1.3 1.6 0 .4.1 1 .4 1.2l2 .6zM21.6 14.1c.3 0 .4-.2.4-.4 0-.3-.2-.4-.4-.4h-3.8c-.3 0-.4.2-.4.4 0 .3.2.4.4.4h3.8zM18 11.7l3.7-1c.3-.1.4-.3.3-.6-.1-.3-.3-.4-.6-.3l-3.7 1c-.3.1-.4.3-.3.6.1.2.4.3.6.3zM21.6 16.4l-3.7-1c-.3-.1-.5.1-.6.3s.1.5.3.6l3.7 1c.3.1.5-.1.6-.3.2-.3 0-.6-.3-.6z"/></g></g></symbol><symbol viewBox="0 0 30 30" id="markers--community--Neighbourhood_Safer_Place" xmlns="http://www.w3.org/2000/svg"><circle fill="#007500" stroke="#FFF" stroke-width="2" stroke-linejoin="round" stroke-miterlimit="10" cx="15" cy="15" r="13.8"/><g fill="#FFF"><circle cx="10" cy="12.2" r="1.8"/><path d="M11.2 17.8c0-.7.2-1.4 1.1-1.6v-.3c0-.4-.3-.8-.6-.8H8.3c-.4 0-.6.5-.6.8v4c0 .4.3.6.6.6h3c-.1 0-.1-2.8-.1-2.7z"/><circle cx="19.9" cy="12.2" r="1.8"/><path d="M21.4 20.5h.2c.4 0 .7-.7.7-1.1v-3.6c0-.4-.4-.8-.7-.8h-3.2c-.4 0-.6.5-.6.8v.3c.9.3.9.9.9 1.6v2.8h2.7zM16.6 23.2h.3c.4 0 .8-.5.8-.8v-4.7c0-.4-.5-.9-.8-.9H13c-.4 0-.7.5-.7.9v4.7c0 .4.4.8.7.8H16.6z"/><circle cx="15" cy="14" r="1.8"/><circle cx="15" cy="9.5" r="1.8"/></g></symbol><symbol viewBox="0 0 30 30" id="markers--incident--Accident_Collision" xmlns="http://www.w3.org/2000/svg"><path fill="#FFF" d="M15 .4L.3 14.9 15 29.5l14.6-14.6z"/><path d="M15 30c-1.4 0-2.6-.5-3.6-1.5l-9.9-9.9C.5 17.6 0 16.4 0 15s.5-2.6 1.5-3.6l9.9-9.9C12.4.5 13.6 0 15 0s2.6.5 3.6 1.5l9.9 9.9c2 2 2 5.2 0 7.2l-9.9 9.9c-1 1-2.2 1.5-3.6 1.5zm0-27.4c-.7 0-1.3.3-1.7.7l-9.9 9.9c-.5.5-.7 1.1-.7 1.7s.3 1.3.7 1.7l9.9 9.9c.9.9 2.5.9 3.5 0l9.9-9.9c1-1 1-2.5 0-3.5l-9.9-9.9c-.5-.3-1.1-.6-1.8-.6z"/><circle cx="20.6" cy="17.1" r="1.7"/><circle cx="9.3" cy="17.1" r="1.7"/><path d="M4.3 16.9c0 .1.2.1.2.1h20.1c.1 0 .2 0 .2-.1v-2c0-.1 0-.2-.1-.3 0 0-.4-1.4-1.8-1.4-.8 0-2.2-.1-3-.3-.9-.2-4.3-2.6-5.7-2.6h-3.1c-1.3 0-3.1 1.9-3.1 1.9-.1.1-.2.1-.3.1 0 0-3.4 1.2-3.4 1.7v2.9z"/></symbol><symbol viewBox="0 0 30 30" id="markers--incident--Aircraft_Incident" xmlns="http://www.w3.org/2000/svg"><path fill="#FFF" d="M15.1.5L.4 15.1l14.7 14.5L29.7 15z"/><path d="M15 30c-1.4 0-2.6-.5-3.6-1.5l-9.9-9.9C.5 17.6 0 16.4 0 15s.5-2.6 1.5-3.6l9.9-9.9C12.4.5 13.6 0 15 0s2.6.5 3.6 1.5l9.9 9.9c2 2 2 5.2 0 7.2l-9.9 9.9c-1 1-2.2 1.5-3.6 1.5zm0-27.4c-.7 0-1.3.3-1.7.7l-9.9 9.9c-.5.5-.7 1.1-.7 1.7 0 .7.3 1.3.7 1.7l9.9 9.9c.9.9 2.5.9 3.5 0l9.9-9.9c1-1 1-2.5 0-3.5l-9.9-9.9c-.5-.3-1.1-.6-1.8-.6z"/><path d="M14.2 16.4H10.3c-.2 0-.2 0-.3.2-.3.4-.7.9-1 1.3-.3.4-.8.5-1.2.3-.4-.2-.6-.7-.4-1.2.2-.6.5-1.1.7-1.7v-.4c-.2-.6-.5-1.2-.7-1.7-.2-.5 0-1 .4-1.2.4-.2.9-.1 1.2.3.3.4.7.9 1 1.3.1.1.2.1.3.1h3.9v-.2c-.4-1.5-.9-3-1.3-4.5-.1-.4-.1-.7.2-1 .3-.2.6-.3.9-.2.3.1.4.3.6.5 1 1.8 2 3.5 3 5.3.1.2.2.2.4.2h5.2c.8 0 1.4.6 1.4 1.4 0 .8-.6 1.4-1.5 1.4h-5.2c-.2 0-.3.1-.4.2-1 1.8-2 3.5-3 5.3-.2.4-.6.6-1 .5-.4-.1-.7-.3-.7-.7v-.5c.4-1.5.8-3 1.3-4.4.1-.4.1-.5.1-.6z"/></symbol><symbol viewBox="0 0 100 100" overflow="scroll" id="markers--incident--Animal_Health" xmlns="http://www.w3.org/2000/svg"><path fill="#FFF" d="M50 4.75L95.5 49l-46 47.75L2.5 51z"/><path d="M49.56 99.899c-4.512 0-8.746-1.746-11.921-4.922L4.803 62.14C1.627 58.966-.12 54.731-.12 50.219s1.748-8.746 4.923-11.921L37.639 5.461C40.813 2.285 45.048.538 49.56.538s8.746 1.749 11.92 4.923l32.839 32.837c6.573 6.573 6.573 17.268 0 23.842L61.48 94.977c-3.174 3.176-7.408 4.922-11.92 4.922zm0-90.619a8.06 8.06 0 0 0-5.74 2.362L10.983 44.478a8.06 8.06 0 0 0-2.362 5.74 8.06 8.06 0 0 0 2.362 5.74L43.82 88.797c3.046 3.044 8.431 3.044 11.479 0l32.839-32.838c3.163-3.165 3.163-8.316 0-11.481L55.299 11.642A8.059 8.059 0 0 0 49.56 9.28z"/><path d="M58.883 73.072c-.067-.011-.135-.026-.202-.032-1-.084-1.973-.308-2.939-.567-.937-.251-1.872-.511-2.811-.757a18.927 18.927 0 0 0-2.122-.426 12.915 12.915 0 0 0-2.539-.125c-.62.034-1.233.13-1.842.252-1.048.21-2.076.503-3.107.783-.842.229-1.685.453-2.544.613-.59.11-1.184.188-1.784.218a7.536 7.536 0 0 1-2.185-.197c-1.074-.264-2.003-.797-2.816-1.538-1.195-1.089-1.972-2.42-2.314-4.002a8.255 8.255 0 0 1-.167-2.19c.076-1.424.467-2.761 1.091-4.035.626-1.28 1.454-2.416 2.44-3.442.379-.395.784-.763 1.195-1.123.86-.752 1.622-1.597 2.335-2.488.763-.954 1.463-1.953 2.165-2.952.599-.851 1.198-1.703 1.852-2.514.529-.656 1.091-1.28 1.727-1.834.68-.592 1.424-1.078 2.273-1.392a6.166 6.166 0 0 1 2.046-.388c1.056-.02 2.092.101 3.102.422 1.097.348 2.051.935 2.885 1.724a12.516 12.516 0 0 1 1.759 2.113c.543.805 1.067 1.623 1.595 2.438.558.86 1.13 1.709 1.763 2.516a18.548 18.548 0 0 0 2.387 2.522c1.133.992 2.124 2.111 2.929 3.388.655 1.039 1.158 2.145 1.46 3.338.209.828.314 1.668.278 2.522-.079 1.836-.712 3.45-1.992 4.782-1.013 1.055-2.225 1.792-3.649 2.16a7.89 7.89 0 0 1-1.134.188c-.035.004-.069.015-.104.024l-1.031-.001zM58.785 26.938l.299.043c.993.138 1.851.562 2.586 1.237.758.696 1.28 1.549 1.648 2.503.291.754.467 1.536.542 2.341.193 2.074-.181 4.046-1.075 5.922a9.397 9.397 0 0 1-1.906 2.695c-.707.693-1.508 1.246-2.443 1.591a4.927 4.927 0 0 1-1.992.32c-1.451-.08-2.611-.73-3.533-1.83-.628-.75-1.045-1.612-1.325-2.544a8.785 8.785 0 0 1-.35-1.86c-.191-2.481.371-4.78 1.691-6.889a8.286 8.286 0 0 1 2.362-2.486c.681-.465 1.42-.8 2.234-.954.16-.03.323-.044.484-.067.031-.004.062-.014.092-.021l.686-.001zM74.734 45.73c-.007.027-.019.053-.021.08a6.894 6.894 0 0 1-.26 1.516 9.398 9.398 0 0 1-2.233 4.012c-.821.875-1.779 1.556-2.911 1.974-.7.259-1.424.395-2.171.353-1.484-.083-2.66-.738-3.524-1.945-.465-.65-.747-1.381-.909-2.161a7.262 7.262 0 0 1-.142-1.801 8.837 8.837 0 0 1 .641-2.926 9.382 9.382 0 0 1 1.883-2.97c.837-.889 1.811-1.58 2.967-1.997a5.453 5.453 0 0 1 1.917-.341c1.24.012 2.312.444 3.197 1.316.519.512.889 1.124 1.15 1.802.196.509.318 1.036.385 1.577.012.096.021.192.031.287v1.224zM24.436 44.823c.016-.086.039-.172.047-.259.088-.967.338-1.885.825-2.731.445-.773 1.043-1.397 1.833-1.825a4.327 4.327 0 0 1 2.151-.526c.953.012 1.831.291 2.654.757.975.552 1.772 1.303 2.431 2.203a9.372 9.372 0 0 1 1.639 3.749c.102.509.153 1.024.162 1.544.015.978-.131 1.926-.494 2.837a5.259 5.259 0 0 1-1.136 1.771 4.34 4.34 0 0 1-2.362 1.253c-.952.171-1.869.03-2.758-.328-.832-.335-1.557-.836-2.203-1.455a8.744 8.744 0 0 1-1.77-2.419 9.247 9.247 0 0 1-.924-2.978c-.027-.21-.048-.421-.073-.632-.002-.018-.014-.036-.021-.054l-.001-.907zM47.252 35.952c.016 1.384-.213 2.72-.786 3.988a6.466 6.466 0 0 1-1.388 2.014c-.713.691-1.549 1.15-2.533 1.317a4.674 4.674 0 0 1-2.466-.252c-.811-.303-1.516-.775-2.14-1.369-1.086-1.035-1.826-2.29-2.322-3.696a10.879 10.879 0 0 1-.565-2.563 10.065 10.065 0 0 1 .24-3.475c.262-1.036.685-1.997 1.347-2.843.552-.707 1.222-1.268 2.054-1.619 1.08-.455 2.179-.478 3.288-.117.864.282 1.611.764 2.274 1.38.973.905 1.676 1.995 2.18 3.218.382.925.626 1.887.743 2.881.044.377.075.755.074 1.136z"/><g fill="#FFF"><path d="M54.478 57.715h2.564v9.903h-2.564z"/><path d="M50.809 61.34h9.903v2.564h-9.903z"/></g></symbol><symbol viewBox="0 0 100 100" overflow="scroll" id="markers--incident--Beach_Closures" xmlns="http://www.w3.org/2000/svg"><circle fill="#FFF" cx="50.033" cy="49.983" r="44.75"/><circle fill="#FFF" cx="72.868" cy="44.568" r="7.066"/><path fill="#FFF" d="M43.223 74.685c1.267-2.018 2.851-4.089 4.758-5.721 2.9-2.481 8.474-4.605 13.055-6.997l1.061 13.714a4.137 4.137 0 0 0 1.185 2.591l7.052 7.118a4.135 4.135 0 0 0 5.848.028 4.133 4.133 0 0 0 .029-5.848l-5.983-6.042-1.331-17.197c-.053-.675-.208-2.952-.249-3.044-1.5-3.384-5.587-6.174-5.587-6.174s-1.733-1.753-2.734-2.633l-10.612-9.33a4.142 4.142 0 0 0-3.564-.946l-19.042 3.911A4.14 4.14 0 0 0 23.889 43a4.128 4.128 0 0 0 1.319 2.272 4.128 4.128 0 0 0 3.566.948L45.8 42.723l6.205 5.455c-1.3.26-2.657.593-4.074 1.008-6.663 1.952-11.625 5.837-14.676 8.835a4.125 4.125 0 0 0-1.257.935l-11.86 13.065"/><path fill="#FFF" d="M17.733 80.922a4.138 4.138 0 0 0 5.795-.327l11.125-10.957c.28.221.876.403.784.804"/><circle cx="72.868" cy="44.568" r="7.066"/><path d="M43.223 74.685c1.267-2.018 2.851-4.089 4.758-5.721 2.9-2.481 8.474-4.605 13.055-6.997l1.061 13.714a4.137 4.137 0 0 0 1.185 2.591l7.052 7.118a4.135 4.135 0 0 0 5.848.028 4.133 4.133 0 0 0 .029-5.848l-5.983-6.042-1.331-17.197c-.053-.675-.208-2.952-.249-3.044-1.5-3.384-5.587-6.174-5.587-6.174s-1.733-1.753-2.734-2.633l-10.612-9.33a4.142 4.142 0 0 0-3.564-.946l-19.042 3.911A4.14 4.14 0 0 0 23.889 43a4.128 4.128 0 0 0 1.319 2.272 4.128 4.128 0 0 0 3.566.948L45.8 42.723l6.205 5.455c-1.3.26-2.657.593-4.074 1.008-6.663 1.952-11.625 5.837-14.676 8.835a4.125 4.125 0 0 0-1.257.935l-11.86 13.065"/><path d="M17.733 80.922a4.138 4.138 0 0 0 5.795-.327l11.125-10.957c.28.221.876.403.784.804"/><g><path fill="#FFF" d="M21.74 87.331S-.834 62.05 5.666 60.3s7.75-5.95 14.5-5.95 8 6.45 14 6.45 8.25-6.5 15-6.5 9.125 6.5 15 6.5 8.375-6.5 15.5-6.5c6.5 0 6.875 4.5 12.25 4.5s3.25 6.5 3.25 6.5l-15.26 21.198-29.833 9.667-28.333-8.834z"/><path d="M50.083 98L20.65 88.824l-.343-.487C15.806 81.925.794 66.702 2.981 60.672c.378-1.044 1.171-1.776 2.23-2.062 2.523-.68 4.2-1.789 5.822-2.861 2.341-1.548 4.762-3.149 9.133-3.149 4.116 0 6.488 2.01 8.581 3.782 1.759 1.49 3.148 2.668 5.419 2.668 2.325 0 4.017-1.276 5.975-2.754 2.327-1.756 4.965-3.746 9.025-3.746 4.075 0 6.746 2.002 9.104 3.769 1.955 1.466 3.644 2.731 5.896 2.731 2.229 0 3.944-1.243 5.93-2.683 2.47-1.789 5.269-3.817 9.57-3.817 3.966 0 6.086 1.518 7.789 2.737 1.43 1.023 2.463 1.763 4.461 1.763 2.441 0 3.735 1.078 4.392 1.982 1.841 2.54-1.584 6.538-1.725 6.968l-.25 1.25-14.437 19.438L50.083 98zM22.831 85.838l27.314 11.725 28.58-12.521 14.823-20.44c.253-.893.52-2.699-.077-3.517-.097-.132-.391-.534-1.556-.534-3.122 0-4.915-1.284-6.498-2.417-1.562-1.118-2.909-2.083-5.752-2.083-3.167 0-5.279 1.531-7.517 3.151-2.271 1.646-4.62 3.349-7.983 3.349-3.419 0-5.851-1.822-7.996-3.431-2.105-1.578-4.095-3.069-7.004-3.069-2.888 0-4.846 1.477-6.917 3.04-2.149 1.622-4.585 3.46-8.083 3.46-3.554 0-5.747-1.858-7.682-3.497-1.87-1.585-3.485-2.953-6.318-2.953-3.318 0-5.032 1.134-7.202 2.568-1.746 1.155-3.723 2.463-6.731 3.291-.861 2.599 6.891 9.978 16.599 23.878z"/></g><g><path d="M11.975 74.426c.378-1.044 1.171-1.776 2.23-2.062 2.523-.68 4.2-1.789 5.822-2.861 2.341-1.548 4.762-3.149 9.133-3.149 4.116 0 6.488 2.01 8.581 3.782 1.759 1.49 3.148 2.668 5.419 2.668 2.325 0 4.017-1.276 5.975-2.754 2.327-1.756 4.965-3.746 9.025-3.746 4.075 0 6.746 2.002 9.104 3.769 1.955 1.466 3.644 2.731 5.896 2.731 2.229 0 3.944-1.243 5.93-2.683 2.47-1.789 5.269-3.817 9.57-3.817 3.966 0 .631 2.335 2.334 3.554 1.43 1.023-23.917 23.896-23.917 23.896l-35.333 1m-3.166-2.5l37.38 3.433s25.557-23.821 23.974-24.954c-1.562-1.118 1.572-.929-1.271-.929-3.167 0-5.279 1.531-7.517 3.151-2.271 1.646-4.62 3.349-7.983 3.349-3.419 0-5.851-1.822-7.996-3.431-2.105-1.578-4.095-3.069-7.004-3.069-2.888 0-4.846 1.477-6.917 3.04-2.149 1.622-4.585 3.46-8.083 3.46-3.554 0-5.747-1.858-7.682-3.497-1.87-1.585-3.485-2.953-6.318-2.953-3.318 0-5.032 1.134-7.202 2.568-1.746 1.155-3.723 2.463-6.731 3.291-.862 2.6 3.642 2.642 13.35 16.541z"/></g><g><path fill="#EC0A47" d="M78.25 16.166l4.241 4.242-62.635 62.636-4.242-4.242z"/></g><g><path fill="#EC0A47" d="M50.15 99.233c-26.927 0-48.833-21.906-48.833-48.833S23.223 1.566 50.15 1.566 98.984 23.474 98.984 50.4 77.076 99.233 50.15 99.233zm0-91.667C26.532 7.566 7.317 26.781 7.317 50.4c0 23.618 19.215 42.833 42.833 42.833 23.619 0 42.834-19.215 42.834-42.833 0-23.619-19.215-42.834-42.834-42.834z"/></g></symbol><symbol viewBox="0 0 30 30" id="markers--incident--Building_damage" xmlns="http://www.w3.org/2000/svg"><path fill="#FFF" d="M15.1 1.3l13.8 13.3L15 29 .8 15.2z"/><path d="M15 30c-1.4 0-2.6-.5-3.6-1.5l-9.9-9.9C.5 17.6 0 16.4 0 15s.5-2.6 1.5-3.6l9.9-9.9C12.4.5 13.6 0 15 0s2.6.5 3.6 1.5l9.9 9.9c2 2 2 5.2 0 7.2l-9.9 9.9c-1 1-2.2 1.5-3.6 1.5zm0-27.4c-.7 0-1.3.3-1.7.7l-9.9 9.9c-.5.5-.7 1.1-.7 1.7 0 .7.3 1.3.7 1.7l9.9 9.9c.9.9 2.5.9 3.5 0l9.9-9.9c1-1 1-2.5 0-3.5l-9.9-9.9c-.5-.3-1.1-.6-1.8-.6z"/><path d="M9.1 14.4h12.3v5.7H9.1z"/><path d="M6.2 14.8l8.9-7.5 8.8 7.5z"/><path d="M9.4 8.6h2v3.9h-2z"/><path fill="#FFF" d="M13.5 16h3.4v4.1h-3.4z"/><path fill="#FFF" d="M15.1 16.6c-.6-1.9-.6-2-.6-2.2 0-.5.2-.8 1.8-1.6l-.6-1.2c-.1-.3-.1-.7.1-1l1.7-2.1L19 9.7l-1.4 1.7.7 1.5c.2.4 0 1-.4 1.2-.5.2-1 .5-1.4.7.1.4.2.8.4 1.3l-1.8.5z"/></symbol><symbol viewBox="0 0 93.75 93.75" overflow="scroll" id="markers--incident--Dam_Failure" xmlns="http://www.w3.org/2000/svg"><path fill="#fff" d="M92.23 43.388l-44.742 44.67-45.715-42.8L47.974 1.992z"/><path d="M41.489 88.715S2.651 50.956 8.421 49.294c5.77-1.663 6.88-8.074 12.872-8.074s7.102 8.549 12.428 8.549c5.327 0 7.324-8.55 13.316-8.55 5.992 0 8.1 8.55 13.316 8.55 5.215 0 7.435-8.55 13.76-8.55 5.77 0 6.103 6.65 10.874 6.65 4.772 0 2.885 6.174 2.885 6.174L52.586 89.427l-11.097-.712z"/><path d="M19.982 65.312l4.706 1.462 23.232 16.93 24.143-16.077-5.617-4.385-23.992-.244z"/><path stroke-miterlimit="10" d="M16.866 65.592l7.418-5.234c.905-.639 2.328-.507 3.162.29l7.658 7.331c.834.798 2.243.896 3.133.217l8.077-6.166c.889-.68 2.356-.71 3.261-.072l8.02 5.669c.905.639 2.374.608 3.263-.07l6.836-5.21c.89-.678 2.38-.775 3.314-.216l7.368 4.42" fill="none" stroke="#fff" stroke-width="12.21" stroke-linejoin="round"/><path d="M47.718 94.174c-4.257 0-8.251-1.648-11.247-4.644L5.492 58.547C2.496 55.552.847 51.557.847 47.299c0-4.257 1.65-8.252 4.645-11.248L36.472 5.07C39.465 2.072 43.461.424 47.717.424c4.257 0 8.252 1.65 11.246 4.645L89.946 36.05c6.202 6.202 6.202 16.293 0 22.496L58.964 89.53c-2.993 2.996-6.989 4.644-11.246 4.644zm0-85.502a7.604 7.604 0 0 0-5.415 2.229l-30.98 30.981a7.605 7.605 0 0 0-2.229 5.416c0 2.055.792 3.978 2.229 5.416L42.303 83.7c2.874 2.872 7.954 2.872 10.83 0l30.982-30.984c2.984-2.986 2.984-7.846 0-10.833L53.133 10.901a7.603 7.603 0 0 0-5.415-2.229z"/></symbol><symbol viewBox="0 0 30 30" id="markers--incident--Earthquake" xmlns="http://www.w3.org/2000/svg"><path fill="#FFF" d="M15.2.5L.5 15.1l14.7 14.5L29.8 15z"/><path d="M7.3 21.7h15.5l-7.5 7.2zM9.2 15.3h12.3V21H9.2z"/><path d="M6.4 15.7l8.8-7.4 8.8 7.4z"/><path d="M9.5 9.5h2v3.9h-2z"/><path fill="#FFF" d="M14.3 28.9c-1.8-5.9-1.8-6-1.8-6.2 0-.6 0-.7 4.2-3.8L14 16.3c-.4-.4-.4-1-.1-1.4l3.3-4 1.6 1.4-2.7 3.2 2.9 2.8c.2.2.3.5.3.8 0 .3-.2.6-.4.8-1.6 1.2-3.4 2.5-4.2 3.2.3 1.1 1.1 3.6 1.6 5.3l-2 .5z"/><path d="M15.1 30c-1.4 0-2.6-.5-3.6-1.5l-9.9-9.9C.6 17.6.1 16.4.1 15s.5-2.6 1.5-3.6l9.9-9.9c1-1 2.2-1.5 3.6-1.5s2.6.5 3.6 1.5l9.9 9.9c2 2 2 5.2 0 7.2l-9.9 9.9c-.9 1-2.2 1.5-3.6 1.5zm0-27.4c-.7 0-1.3.3-1.7.7l-9.9 9.9c-.5.5-.7 1.1-.7 1.8s.3 1.3.7 1.7l9.9 9.9c.9.9 2.5.9 3.5 0l9.9-9.9c1-1 1-2.5 0-3.5l-9.9-9.9c-.5-.4-1.1-.7-1.8-.7z"/></symbol><symbol viewBox="0 0 30 30" id="markers--incident--Fallen_Power_Lines" xmlns="http://www.w3.org/2000/svg"><path fill="#FFF" d="M15.1 1.3l13.8 13.4L15 29.1.8 15.3z"/><path d="M15 30c-1.4 0-2.6-.5-3.6-1.5l-9.9-9.9C.5 17.6 0 16.4 0 15s.5-2.6 1.5-3.6l9.9-9.9C12.4.5 13.6 0 15 0s2.6.5 3.6 1.5l9.9 9.9c2 2 2 5.2 0 7.2l-9.9 9.9c-1 1-2.2 1.5-3.6 1.5zm0-27.4c-.7 0-1.3.3-1.7.7l-9.9 9.9c-.5.5-.7 1.1-.7 1.7s.3 1.3.7 1.7l9.9 9.9c.9.9 2.5.9 3.5 0l9.9-9.9c1-1 1-2.5 0-3.5l-9.9-9.9c-.5-.3-1.1-.6-1.8-.6z"/><path d="M20.4 9.3c.6.8-8.1 14.4-8.7 14.1-.5-.3 2.2-5 1.1-6.7-1.6-1-6.3 1.7-6.6 1.2-.2-.5 13.4-9.3 14.2-8.6 0-.1 0 0 0 0"/><path d="M21.6 16.1c-.1 0-.2 0-.3-.1l-7.6-7.6c-.2-.2-.2-.4 0-.6.2-.2.4-.2.6 0l7.6 7.6c.2.2.2.4 0 .6-.1.1-.2.1-.3.1zM19.5 18.2c-.1 0-.2 0-.3-.1l-7.6-7.6c-.2-.2-.2-.4 0-.6.2-.2.4-.2.6 0l7.6 7.6c.2.2.2.4 0 .6-.1 0-.2.1-.3.1z"/></symbol><symbol viewBox="0 0 30 30" id="markers--incident--Fire" xmlns="http://www.w3.org/2000/svg"><path d="M14.999 30a5.053 5.053 0 0 1-3.6-1.486l-9.913-9.915A5.053 5.053 0 0 1 0 15c0-1.362.528-2.64 1.486-3.6L11.4 1.487A5.052 5.052 0 0 1 14.999 0c1.362 0 2.64.528 3.598 1.486l9.915 9.915a5.096 5.096 0 0 1 0 7.198l-9.915 9.915A5.05 5.05 0 0 1 15 30zm0-27.36c-.658 0-1.273.253-1.733.713l-9.914 9.914A2.434 2.434 0 0 0 2.64 15c0 .657.253 1.273.713 1.733l9.914 9.915c.92.92 2.545.92 3.465 0l9.915-9.915a2.455 2.455 0 0 0 0-3.466L16.73 3.353A2.433 2.433 0 0 0 15 2.639z"/><path d="M20.75 12.293s-.001 1.196-.28 2.423c-.605-2.62-2.4-4.834-2.4-4.834-.253 4.11-2.456 4.507-2.456 4.507s.69-1.167.767-3.35c.09-2.528-2.078-4.253-2.078-4.253l-.629 2.272c-.217.786-.811 1.426-1.494 2.077-.385-1.505-1.726-2.413-1.79-2.456.036.026.303.258.35 1.587.05 1.424-2.376 2.74-2.527 5.314-.204 3.456 3.155 5.358 4.069 5.81.773.681 1.393 1.072 1.393 1.072-.963-2.553-.803-3.864-.104-4.964.759-1.193 2.275-1.534 2.275-1.534-1.618 2.465 1.01 2.769.72 6.498 0 0 .52-.1 1.22-.603 1.074-.483 3.211-1.768 3.772-4.526.758-3.725-.809-5.04-.809-5.04z"/><path d="M10.391 8.68l-.004-.003.004.002z"/><path d="M14.49 27.265a3.408 3.408 0 0 1-.616-.227c-.333-.16-.796-.608-5.57-5.383-4.953-4.952-5.217-5.226-5.393-5.598-.161-.34-.189-.463-.209-.931-.026-.609.057-.959.33-1.39.087-.138 2.519-2.606 5.403-5.484 4.714-4.705 5.275-5.247 5.55-5.361.483-.2.94-.26 1.401-.18.852.145.567-.109 6.295 5.621 4.785 4.786 5.222 5.238 5.384 5.575.344.712.352 1.389.026 2.137-.142.325-.49.688-5.3 5.51-2.832 2.837-5.26 5.234-5.395 5.324-.525.35-1.315.511-1.906.387zm-1.009-5.463a14.047 14.047 0 0 1-.335-1.244c-.354-1.717.178-3.2 1.436-4.006.287-.184 1.017-.523 1.124-.523.027 0-.034.17-.137.377-.407.828-.367 1.38.182 2.478.575 1.151.751 1.783.794 2.834.025.635.042.74.12.74.196 0 1.932-.96 2.511-1.39.475-.352 1.196-1.1 1.49-1.545.75-1.134 1.101-2.438 1.1-4.081-.001-1-.117-1.633-.418-2.285-.2-.432-.504-.874-.6-.874-.03 0-.052.186-.052.414 0 .451-.155 1.712-.219 1.78-.021.024-.072-.09-.113-.25-.095-.38-.523-1.473-.768-1.961-.449-.895-1.431-2.42-1.522-2.363-.025.015-.061.24-.081.498-.045.585-.303 1.622-.527 2.113-.23.506-.566.989-.898 1.287-.284.256-.763.543-.817.49-.016-.017.042-.218.13-.446.439-1.144.634-2.895.43-3.856a5.815 5.815 0 0 0-.697-1.705c-.303-.49-.904-1.215-1.165-1.406l-.166-.122-.324 1.184c-.178.651-.397 1.34-.486 1.533-.172.367-.657 1.01-1.043 1.38-.207.197-.233.208-.265.111a5.557 5.557 0 0 0-.61-1.17c-.229-.322-.997-1.09-1.09-1.09-.022 0 .01.145.07.322.14.413.197 1.412.097 1.724-.1.314-.38.76-.986 1.574-.906 1.217-1.275 1.977-1.424 2.926-.124.795.037 1.867.4 2.667.545 1.202 1.764 2.445 3.175 3.237.26.146.576.353.702.459.349.294 1.1.846 1.15.846.026 0-.05-.296-.168-.657z" fill="#fff"/></symbol><symbol viewBox="0 0 30 30" id="markers--incident--Fire_Active" xmlns="http://www.w3.org/2000/svg"><path d="M14.999 30a5.053 5.053 0 0 1-3.6-1.486l-9.913-9.915A5.053 5.053 0 0 1 0 15c0-1.362.528-2.64 1.486-3.6L11.4 1.487A5.052 5.052 0 0 1 14.999 0c1.362 0 2.64.528 3.598 1.486l9.915 9.915a5.096 5.096 0 0 1 0 7.198l-9.915 9.915A5.05 5.05 0 0 1 15 30z"/><path d="M20.75 12.293s-.001 1.196-.28 2.423c-.605-2.62-2.4-4.834-2.4-4.834-.253 4.11-2.456 4.507-2.456 4.507s.69-1.167.767-3.35c.09-2.528-2.078-4.253-2.078-4.253l-.629 2.272c-.217.786-.811 1.426-1.494 2.077-.385-1.505-1.726-2.413-1.79-2.456.036.026.303.258.35 1.587.05 1.424-2.376 2.74-2.527 5.314-.204 3.456 3.155 5.358 4.069 5.81.773.681 1.393 1.072 1.393 1.072-.963-2.553-.803-3.864-.104-4.964.759-1.193 2.275-1.534 2.275-1.534-1.618 2.465 1.01 2.769.72 6.498 0 0 .52-.1 1.22-.603 1.074-.483 3.211-1.768 3.772-4.526.758-3.725-.809-5.04-.809-5.04z" fill="#fff"/></symbol><symbol viewBox="0 0 30 30" id="markers--incident--Hazardous_Material" xmlns="http://www.w3.org/2000/svg"><path fill="#FFF" d="M14.8.1L.2 14.7l14.6 14.5 14.7-14.6z"/><path d="M15 29.7c-1.4 0-2.6-.5-3.6-1.5l-9.9-9.9c-1-1-1.5-2.2-1.5-3.6s.5-2.6 1.5-3.6l9.9-9.9c1-1 2.2-1.5 3.6-1.5s2.6.5 3.6 1.5l9.9 9.9c2 2 2 5.2 0 7.2l-9.9 9.9c-1 1-2.2 1.5-3.6 1.5zm0-27.3c-.7 0-1.3.3-1.7.7L3.4 13c-.5.5-.7 1.1-.7 1.7 0 .7.3 1.3.7 1.7l9.9 9.9c.9.9 2.5.9 3.5 0l9.9-9.9c1-1 1-2.5 0-3.5L16.8 3c-.5-.4-1.1-.6-1.8-.6z"/><path d="M15.2 21.2H15l.2-4.9h.1c.7 0 1.4-.4 1.8-1l4.2 2.5c-1.3 2.1-3.6 3.4-6.1 3.4zM9 17.4c-.5-1-.8-2.1-.8-3.2 0-1.4.4-2.7 1.1-3.8l4.1 2.7c-.2.3-.3.7-.3 1.2 0 .3.1.7.2 1L9 17.4zm8.1-4.3c-.4-.7-1.1-1.1-1.8-1.1V7.2c2.5 0 4.9 1.4 6.1 3.6l-4.3 2.3z"/><circle cx="15.2" cy="14.2" r="1.1"/></symbol><symbol viewBox="0 0 30 30" id="markers--incident--Hazardous_Material_Gas_Leak" xmlns="http://www.w3.org/2000/svg"><path fill="#FFF" d="M15.1 1.3l13.8 13.3L15 29 .8 15.2z"/><path d="M15 30c-1.4 0-2.6-.5-3.6-1.5l-9.9-9.9C.5 17.6 0 16.4 0 15s.5-2.6 1.5-3.6l9.9-9.9C12.4.5 13.6 0 15 0s2.6.5 3.6 1.5l9.9 9.9c2 2 2 5.2 0 7.2l-9.9 9.9c-1 1-2.2 1.5-3.6 1.5zm0-27.4c-.7 0-1.3.3-1.7.7l-9.9 9.9c-.5.5-.7 1.1-.7 1.7s.3 1.3.7 1.7l9.9 9.9c.9.9 2.5.9 3.5 0l9.9-9.9c1-1 1-2.5 0-3.5l-9.9-9.9c-.5-.3-1.1-.6-1.8-.6z"/><path d="M20.2 19.8c0 2.1-1.7 3.8-3.8 3.8h-2.6c-2.1 0-3.8-1.7-3.8-3.8v-6.1c0-2.1 1.7-3.8 3.8-3.8h2.6c2.1 0 3.8 1.7 3.8 3.8v6.1z"/><path d="M17.4 9.9c0 .5-.4.9-.9.9h-3c-.5 0-.9-.4-.9-.9V8c0-.5.4-.9.9-.9h3c.5 0 .9.4.9.9v1.9z"/><path fill="#FFF" d="M16.6 9.3c0 .2-.2.4-.4.4h-.3c-.2 0-.4-.2-.4-.4v-.8c0-.2.2-.4.4-.4h.3c.2 0 .4.2.4.4v.8zM14.6 9.3c0 .2-.2.4-.4.4h-.3c-.2 0-.4-.2-.4-.4v-.8c0-.2.2-.4.4-.4h.3c.2 0 .4.2.4.4v.8z"/></symbol><symbol viewBox="0 0 30 30" id="markers--incident--Hazardous_Material_Liquids" xmlns="http://www.w3.org/2000/svg"><path fill="#FFF" d="M15.1 1.3l13.8 13.3L15 29 .8 15.2z"/><path d="M15 30c-1.4 0-2.6-.5-3.6-1.5l-9.9-9.9C.5 17.6 0 16.4 0 15s.5-2.6 1.5-3.6l9.9-9.9C12.4.5 13.6 0 15 0s2.6.5 3.6 1.5l9.9 9.9c2 2 2 5.2 0 7.2l-9.9 9.9c-1 1-2.2 1.5-3.6 1.5zm0-27.4c-.7 0-1.3.3-1.7.7l-9.9 9.9c-.5.5-.7 1.1-.7 1.7 0 .7.3 1.3.7 1.7l9.9 9.9c.9.9 2.5.9 3.5 0l9.9-9.9c1-1 1-2.5 0-3.5l-9.9-9.9c-.5-.3-1.1-.6-1.8-.6z"/><path d="M19 16.4c-.4-3.1-3-4.4-3.9-9.1v-.1.1c-.9 4.7-3.6 6.2-3.9 9.1-.5 4 2.4 5 3.9 5s4.3-1.2 3.9-5z"/></symbol><symbol viewBox="0 0 30 30" id="markers--incident--Health" xmlns="http://www.w3.org/2000/svg"><path fill="#FFF" d="M15.1.4L.4 15l14.7 14.5 14.6-14.6z"/><path d="M15 30c-1.4 0-2.6-.5-3.6-1.5l-9.9-9.9C.5 17.6 0 16.4 0 15s.5-2.6 1.5-3.6l9.9-9.9C12.4.5 13.6 0 15 0s2.6.5 3.6 1.5l9.9 9.9c2 2 2 5.2 0 7.2l-9.9 9.9c-1 1-2.2 1.5-3.6 1.5zm0-27.4c-.7 0-1.3.3-1.7.7l-9.9 9.9c-.5.5-.7 1.1-.7 1.7 0 .7.3 1.3.7 1.7l9.9 9.9c.9.9 2.5.9 3.5 0l9.9-9.9c1-1 1-2.5 0-3.5l-9.9-9.9c-.5-.3-1.1-.6-1.8-.6z"/><circle cx="14.7" cy="13.7" r="4.6"/><path d="M6 21.5s2.1-4.3 8.9-4.3 8.5 5.2 8.5 5.2-6.6 5.9-8.7 5.9S6 21.5 6 21.5z"/><path fill="#FFF" d="M15.7 18.9h1.8v5.4h-1.8z"/><path fill="#FFF" d="M13.9 20.7h5.4v1.8h-5.4z"/><path d="M14.5 18.9c-1.7 0-3-1.3-3-3s1.3-3 3-3 3 1.3 3 3c0 1.6-1.3 3-3 3zm0-5.8c-1.5 0-2.7 1.2-2.7 2.7 0 1.5 1.2 2.7 2.7 2.7 1.5 0 2.7-1.2 2.7-2.7 0-1.5-1.2-2.7-2.7-2.7z"/></symbol><symbol viewBox="0 0 30 30" id="markers--incident--Landslide" xmlns="http://www.w3.org/2000/svg"><path fill="#FFF" d="M15.1 1.3l13.8 13.3L15 29 .8 15.2z"/><path d="M15 30c-1.4 0-2.6-.5-3.6-1.5l-9.9-9.9C.5 17.6 0 16.4 0 15s.5-2.6 1.5-3.6l9.9-9.9C12.4.5 13.6 0 15 0s2.6.5 3.6 1.5l9.9 9.9c2 2 2 5.2 0 7.2l-9.9 9.9c-1 1-2.2 1.5-3.6 1.5zm0-27.4c-.7 0-1.3.3-1.7.7l-9.9 9.9c-.5.5-.7 1.1-.7 1.7 0 .7.3 1.3.7 1.7l9.9 9.9c.9.9 2.5.9 3.5 0l9.9-9.9c1-1 1-2.5 0-3.5l-9.9-9.9c-.5-.3-1.1-.6-1.8-.6z"/><path d="M15.5 7.4C15.2 7.3 6.9 19 6.9 19c-.2.3-.1.5.3.5l11.9.1c-6.2-4-3.3-12.2-3.6-12.2z"/><path d="M16.3 9.4s-.6.6-.5 1c.1.4.4.8.7.9.3.1 1-.3 1-.6.1-.4-.5-1.6-1.2-1.3zM16.4 13c-.7.3-.4.8-.1 1.5.3.7 1 1 1.6.9.6-.1.3-1.2-.1-1.5-.4-.4-.9-1.1-1.4-.9zM18 11.6c-.2.4-.2.7 0 .9s.9.1 1.1-.1c.2-.2.3-1-.2-1.1-.5-.1-.9.3-.9.3zM19.9 14.9c-.8.3-1.2 1-.9 1.9.3.9.1 2 .6 2.2.5.2 2.7.4 2.6-.5 0-1-.4-2.4-.9-2.7-.3-.3-1-1-1.4-.9zM19.4 13.4c.1-.2.2-.3.5-.1.3.1.6.5.3.7-.2.1-1-.1-.8-.6z"/></symbol><symbol viewBox="0 0 30 30" id="markers--incident--Locust_Plague" xmlns="http://www.w3.org/2000/svg"><path fill="#FFF" d="M15 1.3l13.8 13.3L14.9 29 .7 15.2z"/><path d="M14.9 30c-1.4 0-2.6-.5-3.6-1.5l-9.9-9.9c-1-1-1.5-2.2-1.5-3.6s.5-2.6 1.5-3.6l9.9-9.9c1-1 2.2-1.5 3.6-1.5s2.6.5 3.6 1.5l9.9 9.9c2 2 2 5.2 0 7.2l-9.9 9.9c-1 1-2.3 1.5-3.6 1.5zm0-27.4c-.7 0-1.3.3-1.7.7l-9.9 9.9c-.5.5-.7 1.1-.7 1.7 0 .7.3 1.3.7 1.7l9.9 9.9c.9.9 2.5.9 3.5 0l9.9-9.9c1-1 1-2.5 0-3.5l-9.9-9.9c-.5-.3-1.2-.6-1.8-.6z"/><ellipse cx="14.9" cy="10.4" rx="1" ry="1.5"/><ellipse cx="14.9" cy="14" rx="2.1" ry="3"/><ellipse cx="14.9" cy="18.8" rx="1.7" ry="3.9"/><path d="M20.3 15.3c-.1 0-.1 0 0 0l-.9-.1c-.2 0-.3-.1-.3-.3l-.7-2.3h-2.1c-.2 0-.4-.2-.4-.4s.2-.4.4-.4h2.4c.2 0 .3.1.4.3l.7 2.3.6.1c.2 0 .4.2.3.4-.1.3-.2.4-.4.4z"/><path d="M20 16.8c-.2 0-.3 0-1.9-2.3l-1.7.1c-.2 0-.4-.1-.4-.4 0-.2.1-.4.4-.4l1.9-.1c.1 0 .2.1.3.2.6.9 1.3 1.8 1.6 2.1h.8v.8c-.1-.1-.9 0-1 0zM19.7 21.4c-.1 0-.1 0-.2-.1-1-.7-1-.8-1-1 0-.1-.2-1.7-.3-2.9L16 15.7c-.2-.1-.2-.4-.1-.5.1-.2.4-.2.5-.1l2.3 1.8c.1.1.1.2.1.3.1 1.2.2 2.5.3 3 .1.1.4.3.7.5.2.1.2.3.1.5.1.2-.1.2-.2.2zM15.4 9.8h-.2c-.1-.1-.2-.3-.1-.4L17 6.2c.2-.2.3-.3.5-.2.1.1.2.3.1.4l-1.9 3.2c-.1.1-.2.2-.3.2zM9.6 15.2c-.2 0-.4-.1-.4-.3 0-.2.1-.4.3-.4l.6-.1.7-2.3c0-.2.2-.3.4-.3h2.4c.2 0 .4.2.4.4s-.2.4-.4.4h-2.1l-.7 2.3c0 .1-.2.3-.3.3h-.9z"/><path d="M9.9 16.7h-1v-.8h.8c.3-.3 1-1.3 1.6-2.1.1-.1.2-.2.3-.2l1.9.1c.2 0 .4.2.4.4s-.2.4-.4.4l-1.7-.1c-1.6 2.3-1.7 2.3-1.9 2.3zM10.2 21.3c-.1 0-.2-.1-.3-.2-.2-.1-.1-.3.1-.5.3-.2.6-.4.7-.5 0-.5.2-1.8.3-3 0-.1.1-.2.1-.3l2.3-1.8c.2-.1.4-.1.5.1.1.2.1.4-.1.5l-2.2 1.7c-.1 1.2-.3 2.8-.3 2.9 0 .2 0 .3-1 .9 0 .2-.1.2-.1.2zM14.5 9.7c-.1 0-.2-.1-.3-.1l-1.9-3.2c-.1-.1 0-.3.1-.4.1-.1.3 0 .4.1l1.9 3.2c.1.1 0 .3-.1.4h-.1z"/></symbol><symbol viewBox="0 0 30 30" id="markers--incident--Oiled_Wildlife" xmlns="http://www.w3.org/2000/svg"><path fill="#FFF" d="M15.1 1.3l13.8 13.3L15 29 .8 15.2z"/><path d="M15 30c-1.4 0-2.6-.5-3.6-1.5l-9.9-9.9C.5 17.6 0 16.4 0 15s.5-2.6 1.5-3.6l9.9-9.9C12.4.5 13.6 0 15 0s2.6.5 3.6 1.5l9.9 9.9c2 2 2 5.2 0 7.2l-9.9 9.9c-1 1-2.2 1.5-3.6 1.5zm0-27.4c-.7 0-1.3.3-1.7.7l-9.9 9.9c-.5.5-.7 1.1-.7 1.7 0 .7.3 1.3.7 1.7l9.9 9.9c.9.9 2.5.9 3.5 0l9.9-9.9c1-1 1-2.5 0-3.5l-9.9-9.9c-.5-.3-1.1-.6-1.8-.6z"/><path d="M12.4 20.5c.2-.3.2-.6.1-.9-.1-.7-.3-1.4-.4-2.2-.2-1-.2-1.9-.2-2.9v-.3c-.1.6-.5 1-1 1.4-.7.6-1.2 1.2-1.7 2-.1.1-.1.2-.2.3-.1.1-.1.1-.2.1 0-.1-.1-.1-.1-.2v-.5c.1-.4.3-.8.5-1.2.4-.9 1-1.6 1.7-2.4.5-.6 1-1.2 1.5-1.9.4-.5.7-1.2.8-1.8.1-.4.1-.8.1-1.2 0-.4 0-.7.1-1.1.3-1.1 1.2-1.6 2.3-1.3.3.1.5.2.7.3.1 0 .2.1.4.1h.7c.2.1.4.2.5.2.1.1.1.1 0 .2-.2.1-.3.2-.5.4-.3.1-.5.3-.7.4-.1.1-.2.2-.3.4-.3.8-.3 1.6 0 2.4.4 1 .9 1.9 1.6 2.8l1.8 2.4c.3.4.5.8.6 1.3.1.3 0 .5-.1.7 0 .1-.1.1-.2 0s-.3-.2-.4-.3c-.4-.4-.7-.9-1.1-1.3-.2-.3-.5-.5-.7-.7-.3-.3-.5-.5-.7-.8v.3c0 1.2-.1 2.4-.4 3.5-.1.5-.3.9-.5 1.3-.1.2-.2.5-.3.7 0 .1-1.6 1.3-1.8 1.2-.2 0-.4-.1-.6-.1-.1 0-.3-.1-.3-.3l-.1-.1c-.4.1-1-.9-.9-.9zm2.8-1v.2c0 .3.1.6.1.9 0 .1.1.2.2.2s.2 0 .3-.1c.1-.1.2-.2.3-.4.5-1 .8-2.1.9-3.2.1-1 .2-2.1.1-3.1 0-.4 0-.8-.1-1.1-.1-.5-.3-1-.5-1.5-.2-.6-.4-1.2-.4-1.9V9l-.1.1c0 .1-.1.1-.1.2-.3.4-.8.5-1.2.1l-.2-.2c-.2-.1-.2-.2-.3-.2-.1-.1-.3-.1-.3.1-.1.2-.1.3-.1.5-.1.3-.1.6-.2.9-.1.4-.3.9-.4 1.3-.1.3-.2.7-.2 1.1 0 .3.1.6.1.9.1.6.1 1.1-.2 1.7-.4.9-.6 1.9-.4 2.9.1.7.3 1.3.7 1.9.1.2.3.4.5.5.2.1.5.2.7.2.4.1.5-.1.6-.4v-.1c.1-.3.1-.6.2-1z"/><path fill="#FFF" d="M15.2 19.5c-.1.4-.1.7-.2 1.1v.1c-.1.4-.3.5-.6.4-.2 0-.5-.1-.7-.2-.2-.1-.4-.3-.5-.5-.3-.6-.5-1.2-.7-1.9-.2-1 0-2 .4-2.9.2-.6.2-1.1.2-1.7 0-.3-.1-.6-.1-.9 0-.4.1-.7.2-1.1.1-.4.3-.9.4-1.3.1-.3.1-.6.2-.9 0-.2.1-.3.1-.5 0-.3.1-.3.3-.2.1.1.2.1.2.2l.2.2c.4.4.9.3 1.2-.1 0-.1.1-.1.1-.2L16 9v.5c-.1.7.1 1.3.4 1.9.2.5.4 1 .5 1.5.1.4.1.8.1 1.1 0 1 0 2.1-.1 3.1-.1 1.1-.4 2.2-.9 3.2-.1.1-.2.3-.3.4-.1.1-.2.1-.3.1-.1 0-.2-.1-.2-.2-.1-.3-.1-.6-.1-.9.1-.1.1-.1.1-.2z"/><path d="M15.7 18.5s5-.2 7.2.4c1.8.5-3.7 1.5-5.5 1.8-2.7.5-2.9 1.2-1.9 1.5 2.7.8 3 1.9 2 2.5s-2.4.9-4.6.5-2.5-2-1.5-2.6c.9-.5 1.6-1.8.5-2.2-1.1-.4-4.5 0-4.8-1-.3-1 3.9-.9 3.9-.9"/><path d="M12.1 17.5s0 1-.5 1.2c-.5.2 6.2.2 5.8 0-.4-.2-.3-1.5-.3-1.5s-3.5 1.9-5 .3z"/></symbol><symbol viewBox="0 0 100 100" overflow="scroll" id="markers--incident--Other_Incident" xmlns="http://www.w3.org/2000/svg"><path fill="#FFF" d="M49.75 1.5L1.25 49.75l48.56 48.149L98.25 49.5z"/><path d="M49.56 99.399c-4.512 0-8.746-1.746-11.921-4.922L4.803 61.64C1.627 58.466-.12 54.231-.12 49.719s1.748-8.746 4.923-11.921L37.639 4.961C40.813 1.785 45.048.038 49.56.038s8.746 1.749 11.92 4.923l32.839 32.837c6.573 6.573 6.573 17.268 0 23.842L61.48 94.477c-3.173 3.176-7.408 4.922-11.92 4.922zm0-90.619a8.06 8.06 0 0 0-5.74 2.362L10.983 43.978a8.06 8.06 0 0 0-2.362 5.74 8.06 8.06 0 0 0 2.362 5.74L43.82 88.297c3.046 3.044 8.431 3.044 11.479 0l32.839-32.838c3.163-3.165 3.163-8.316 0-11.481L55.299 11.142A8.059 8.059 0 0 0 49.56 8.78z"/><path d="M53.335 68.084a4.794 4.794 0 1 1-9.588 0 4.794 4.794 0 0 1 9.588 0zm6.039-37.085c-2.708-2.303-6.06-3.454-10.06-3.454-3.92 0-7.237 1.172-9.953 3.515-2.718 2.344-4.391 6.559-5.016 11.124l.392.816h8.062c.637-3 2.586-7.21 5.878-7.21 1.352 0 2.504.049 3.454.908.949.859 1.424 1.846 1.424 3.34 0 1.212-.254 2.132-.758 2.95-.506.818-1.405 1.655-2.697 2.604-2.466 1.818-3.84 3.449-4.414 4.409C45.11 50.96 44 52.989 44 56.665V60h8.495c0-2 .434-4.335.848-5.063.413-.727 1.373-2.342 3.333-3.636 4.504-2.949 6.757-6.888 6.757-11.272.001-3.535-1.353-6.727-4.059-9.03z"/></symbol><symbol viewBox="0 0 30 30" id="markers--incident--Petroleum_Oil_Spill" xmlns="http://www.w3.org/2000/svg"><path fill="#FFF" d="M15.1 1.3l13.8 13.3L15 29 .8 15.2z"/><path d="M15 30c-1.4 0-2.6-.5-3.6-1.5l-9.9-9.9C.5 17.6 0 16.4 0 15s.5-2.6 1.5-3.6l9.9-9.9C12.4.5 13.6 0 15 0s2.6.5 3.6 1.5l9.9 9.9c2 2 2 5.2 0 7.2l-9.9 9.9c-1 1-2.2 1.5-3.6 1.5zm0-27.4c-.7 0-1.3.3-1.7.7l-9.9 9.9c-.5.5-.7 1.1-.7 1.7 0 .7.3 1.3.7 1.7l9.9 9.9c.9.9 2.5.9 3.5 0l9.9-9.9c1-1 1-2.5 0-3.5l-9.9-9.9c-.5-.3-1.1-.6-1.8-.6z"/><path d="M11.1 18.5s-4.3-.1-3.9.9c.3 1 3.7.6 4.8 1 1.1.4.5 1.7-.5 2.2s-.7 2.2 1.5 2.6 3.7.1 4.6-.5c1-.6.7-1.7-2-2.5-1-.3-.8-1.1 1.9-1.5 1.8-.3 7.3-1.3 5.5-1.8-2.2-.6-7.2-.4-7.2-.4"/><ellipse transform="matrix(.0062 -1 1 .0062 4.176 23.746)" cx="14" cy="9.8" rx="1.3" ry="3.3"/><path d="M10.7 9.8h6.7V19h-6.7z"/><ellipse fill="#FFF" cx="14" cy="9.7" rx="2.7" ry=".9"/><ellipse cx="12.8" cy="9.7" rx=".9" ry=".3"/><path fill="#FFF" d="M11.9 10.9c0 .1.1.2.1.2 0 .1.1.1.1.2s.1.1.2.1h.1l.1-.1H12.8l.2.1h.1s.1 0 .1.1c.1 0 .2.1.2.1.1.1.3.2.4.3.1.1.2.3.3.4.1.1.1.3.1.4v.4c0 .1-.1.2-.1.3 0 .1-.1.1-.1.1h-.1l-.1-.1c-.1 0-.1-.1-.2-.1s-.2-.1-.2-.1H13h-.1-.1H12.5s.1 0 0 0-.2-.1-.2-.1c-.2-.1-.3-.2-.5-.3-.1-.1-.3-.3-.4-.5-.1-.2-.1-.4 0-.6 0-.2.1-.3.2-.4.1-.1.2-.1.2-.2-.1-.2-.1-.2.1-.2-.1 0 0 0 0 0zM11.9 13.2c0 .1.1.2.1.2 0 .1.1.1.1.2s.1.1.2.1h.1l.1-.1H12.8l.2.1h.1s.1 0 .1.1c.1 0 .2.1.2.1.1.1.3.2.4.3.1.1.2.3.3.4.1.1.1.3.1.4v.4c0 .1-.1.2-.1.3 0 .1-.1.1-.1.1h-.1l-.1-.1c-.1 0-.1-.1-.2-.1s-.2-.1-.2-.1H13h-.1-.1H12.5s.1 0 0 0-.2-.1-.2-.1c-.2-.1-.3-.2-.5-.3-.1-.1-.3-.3-.4-.5-.1-.2-.1-.4 0-.6 0-.2.1-.3.2-.4.1-.1.2-.1.2-.2-.1-.1-.1-.2.1-.2-.1 0 0 0 0 0zM11.9 15.5s0 .1 0 0c0 .1.1.2.1.2 0 .1.1.1.1.2s.1.1.2.1h.1l.1-.1H12.8l.2.1h.1s.1 0 .1.1c.1 0 .2.1.2.1.1.1.3.2.4.3.1.1.2.3.3.4.1.1.1.3.1.4v.4c0 .1-.1.2-.1.3 0 .1-.1.1-.1.1h-.1l-.1-.1c-.1 0-.1-.1-.2-.1s-.2-.1-.2-.1H13h-.1-.1H12.5s.1 0 0 0-.2-.1-.2-.1c-.2-.1-.3-.2-.5-.3-.1-.1-.3-.3-.4-.5-.1-.2-.1-.4 0-.6 0-.2.1-.3.2-.4.1-.1.2-.1.2-.2-.1-.1-.1-.1.1-.2-.1 0 0 0 0 0z"/></symbol><symbol viewBox="0 0 30 30" id="markers--incident--Planned_Burn" xmlns="http://www.w3.org/2000/svg"><path fill="#FFF" d="M17.6 27.6c-1.4 1.4-3.7 1.4-5.2 0l-10-10c-1.4-1.4-1.4-3.7 0-5.2l10-10c1.4-1.4 3.7-1.4 5.2 0l10 10c1.4 1.4 1.4 3.7 0 5.2l-10 10z"/><path fill="#FFF" d="M15 30c-1.3 0-2.6-.5-3.5-1.5l-10-10C.5 17.6 0 16.3 0 15c0-1.3.5-2.6 1.5-3.5l10-10C12.4.5 13.7 0 15 0c1.3 0 2.6.5 3.5 1.5l10 10c.9.9 1.5 2.2 1.5 3.5 0 1.3-.5 2.6-1.5 3.5l-10 10c-.9 1-2.2 1.5-3.5 1.5zm0-27.3c-.6 0-1.2.2-1.6.7l-10 10c-.4.4-.7 1-.7 1.6 0 .6.2 1.2.7 1.6l10 10c.4.4 1 .7 1.6.7s1.2-.2 1.6-.7l10-10c.4-.4.7-1 .7-1.6 0-.6-.2-1.2-.7-1.6l-10-10c-.4-.5-1-.7-1.6-.7z"/><path d="M15 30c-1.2 0-2.3-.4-3.2-1.1l1.7-2.1c.4.3.9.5 1.5.5s1.2-.2 1.6-.7l.5-.5L19 28l-.5.5c-.9 1-2.2 1.5-3.5 1.5zm-5.1-3l-3.8-3.8L8 21.3l3.8 3.8L9.9 27zm10.9-.7l-1.9-1.9 3.8-3.8 1.9 1.9-3.8 3.8zM4.4 21.4l-2.9-2.9c-.4-.4-.7-.9-1-1.4L2.9 16c.1.2.3.5.4.6l2.9 2.9-1.8 1.9zm22-.7l-1.9-1.9 2.2-2.2c.3-.3.6-.8.6-1.3l2.7.4c-.2 1-.6 2-1.4 2.7l-2.2 2.3zM2.8 14.4l-2.6-.7c.2-.9.7-1.7 1.3-2.3L3.9 9l1.9 2-2.4 2.4c-.3.3-.5.6-.6 1zm24.2-.6c-.1-.2-.2-.3-.4-.5l-3.1-3.1 1.9-1.9 3.1 3.1c.3.3.6.6.8 1L27 13.8zM7.6 9.2L5.7 7.3l3.8-3.8 1.9 1.9-3.8 3.8zm14.1-.7l-3.8-3.8 1.9-1.9 3.8 3.8-1.9 1.9zm-8.6-4.9l-1.9-1.9.2-.2C12.4.5 13.7 0 15 0c1 0 2 .3 2.8.9l-1.5 2.2c-.4-.3-.8-.4-1.3-.4-.6 0-1.2.2-1.6.7l-.3.2zM13.7 21.3S9.8 19 9.8 16s3.4-3.9 3.9-5.8.6-1.9.6-1.9 1.9 1.4 1.9 3.5c-.1 1.8-.7 2.8-.7 2.8s1.7.5 2.1-2.7c0 0 3.4 2.7 2.1 5.9-1.3 3.1-3.4 3.5-3.4 3.5.3-3.1-1.6-3-.6-4.4 0 0-.9-.3-1.6.7-.7.9-.9 1.4-.4 3.7z"/></symbol><symbol viewBox="0 0 30 30" id="markers--incident--Plant_Pest_Disease" xmlns="http://www.w3.org/2000/svg"><path fill="#FFF" d="M15.1 1.3l13.8 13.3L15 29 .8 15.2z"/><path d="M15 30c-1.4 0-2.6-.5-3.6-1.5l-9.9-9.9C.5 17.6 0 16.4 0 15s.5-2.6 1.5-3.6l9.9-9.9C12.4.5 13.6 0 15 0s2.6.5 3.6 1.5l9.9 9.9c2 2 2 5.2 0 7.2l-9.9 9.9c-1 1-2.3 1.5-3.6 1.5zm0-27.4c-.7 0-1.3.3-1.7.7l-9.9 9.9c-.5.5-.7 1.1-.7 1.7s.3 1.3.7 1.7l9.9 9.9c.9.9 2.5.9 3.5 0l9.9-9.9c1-1 1-2.5 0-3.5l-9.9-9.9c-.5-.3-1.2-.6-1.8-.6z"/><path d="M18.2 19.5c-.2.1-6.1.7-7.6-3.4-1.3-3.4.4-9.4.4-9.4s.4 2.2 3.8 3.3 5.6 3.1 4.6 7.7l-1.2 1.8z"/><path fill="#FFF" d="M18.2 19.5s-.1-.1-.3-.2c-.2-.2-.5-.4-.8-.6-.6-.6-1.4-1.4-2.1-2.3-.3-.5-.6-.9-.8-1.4-.1-.2-.2-.5-.3-.7-.1-.2-.2-.4-.2-.6-.1-.4-.2-.7-.2-1 0-.2-.1-.4-.1-.4s.1.1.1.3c.1.2.2.5.4.9l.3.6c.1.2.3.4.4.6.3.4.6.8 1 1.1.7.7 1.6 1.3 2.3 1.7.3.2.6.3.8.4.2.1.3.1.3.1.4.2.6.7.3 1.1-.2.5-.7.6-1.1.4z"/><path d="M19.2 22.6c0 .1.1.1 0 0 .1 0 0 0 0 0-.1.1 0 .1 0 0h-.1c-.1-.1-.2-.3-.4-.6-.3-.4-.7-.9-1.2-1.4-.5-.5-1-.9-1.4-1.3l-.5-.5-.2-.2h.3c.2 0 .4 0 .7.1.6.1 1.4.5 2 1.1.6.6 1 1.4 1 2.1 0 .3 0 .6-.1.8 0-.1 0-.1-.1-.1l.1.1h-.1c-.1 0 0 0 0-.1z"/><g fill="#FFF"><path d="M11.8 9.8h.8v3h-.8z"/><path d="M10.7 10.9h3v.8h-3z"/></g></symbol><symbol viewBox="0 0 30 30" id="markers--incident--Rail_Incident" xmlns="http://www.w3.org/2000/svg"><path fill="#FFF" d="M15 .5L.3 15.1 15 29.6 29.6 15z"/><path d="M15 30c-1.4 0-2.6-.5-3.6-1.5l-9.9-9.9C.5 17.6 0 16.4 0 15s.5-2.6 1.5-3.6l9.9-9.9C12.4.5 13.6 0 15 0s2.6.5 3.6 1.5l9.9 9.9c2 2 2 5.2 0 7.2l-9.9 9.9c-1 1-2.2 1.5-3.6 1.5zm0-27.4c-.7 0-1.3.3-1.7.7l-9.9 9.9c-.5.5-.7 1.1-.7 1.7 0 .7.3 1.3.7 1.7l9.9 9.9c.9.9 2.5.9 3.5 0l9.9-9.9c1-1 1-2.5 0-3.5l-9.9-9.9c-.5-.3-1.1-.6-1.8-.6z"/><ellipse cx="15" cy="13.1" rx="1.1" ry=".9"/><circle cx="9.7" cy="17.4" r="1.4"/><circle cx="13.4" cy="17.4" r="1.4"/><circle cx="17.2" cy="17.4" r="1.4"/><path d="M22.6 18.7c.2 0 .2-.1.2-.3l-1.1-2.1c-.1-.1-.1-.4-.1-.6v-2.3c0-.2-.1-.3-.3-.3h-2.5c-.2 0-.3-.1-.3-.3v-.6c0-.2.1-.3.3-.3.1 0 .3-.1.3-.3V11c0-.2-.1-.3-.3-.3h-1.5c-.2 0-.3.1-.3.3v.6c0 .2.1.3.3.3.1 0 .3.1.3.3v.6c0 .2-.1.3-.3.3h-4.1c-.2 0-.3-.1-.3-.3v-.5c0-.2-.1-.3-.3-.3H6.7c-.2 0-.3.1-.3.3v.9c0 .2.1.3.3.3h.5c.2 0 .3.1.3.3v2c0 .2.1.3.3.3h11.7c.2 0 .3.1.3.3v1.9c0 .2.1.3.3.3l2.5.1z"/></symbol><symbol viewBox="0 0 100 100" id="markers--incident--Rescue" xmlns="http://www.w3.org/2000/svg"><path fill="#FFF" d="M49.75 1.5L1.25 49.75l48.56 48.149L98.25 49.5z"/><path d="M49.56 99.399c-4.512 0-8.746-1.746-11.921-4.922L4.803 61.64C1.627 58.466-.12 54.231-.12 49.719s1.748-8.746 4.923-11.921L37.639 4.961C40.813 1.785 45.048.038 49.56.038s8.746 1.749 11.92 4.923l32.839 32.837c6.573 6.573 6.573 17.268 0 23.842L61.48 94.477c-3.173 3.176-7.408 4.922-11.92 4.922zm0-90.619a8.06 8.06 0 0 0-5.74 2.362L10.983 43.978a8.06 8.06 0 0 0-2.362 5.74 8.06 8.06 0 0 0 2.362 5.74L43.82 88.297c3.046 3.044 8.431 3.044 11.479 0l32.839-32.838c3.163-3.165 3.163-8.316 0-11.481L55.299 11.142A8.059 8.059 0 0 0 49.56 8.78z"/><path d="M48.625 73h-.25C35.486 73 25 62.514 25 49.625v-.25C25 36.486 35.486 26 48.375 26h.25C61.514 26 72 36.486 72 49.375v.25C72 62.514 61.514 73 48.625 73zm-.25-44C37.141 29 28 38.141 28 49.375v.25C28 60.859 37.141 70 48.375 70h.25C59.859 70 69 60.859 69 49.625v-.25C69 38.141 59.859 29 48.625 29h-.25zM49 62c-7.168 0-13-5.832-13-13s5.832-13 13-13 13 5.832 13 13-5.832 13-13 13zm0-23c-5.514 0-10 4.486-10 10s4.486 10 10 10 10-4.486 10-10-4.486-10-10-10z"/><path d="M47.781 36.433l.092-9.108s9.384.152 16.14 6.907 5.617 14.6 5.617 14.6l-9.108-.092s.124-4.871-3.654-8.649c-3.779-3.777-9.087-3.658-9.087-3.658zM50.083 61.973l-.096 9.524s-9.812-.159-16.876-7.222c-7.063-7.063-5.873-15.266-5.873-15.266l9.524.096s-.129 5.094 3.821 9.044 9.5 3.824 9.5 3.824z"/></symbol><symbol viewBox="0 0 100 100" overflow="scroll" id="markers--incident--Severe_Weather" xmlns="http://www.w3.org/2000/svg"><path fill="#FFF" d="M49.5 4.75L95 49 49 96.75 2 51z"/><path d="M49.56 99.899c-4.512 0-8.746-1.746-11.921-4.922L4.803 62.14C1.627 58.966-.12 54.731-.12 50.219s1.748-8.746 4.923-11.921L37.639 5.461C40.813 2.285 45.048.538 49.56.538s8.746 1.749 11.92 4.923l32.839 32.837c6.573 6.573 6.573 17.268 0 23.842L61.48 94.977c-3.173 3.176-7.408 4.922-11.92 4.922zm0-90.619a8.06 8.06 0 0 0-5.74 2.362L10.983 44.478a8.06 8.06 0 0 0-2.362 5.74 8.06 8.06 0 0 0 2.362 5.74L43.82 88.797c3.046 3.044 8.431 3.044 11.479 0l32.839-32.838c3.163-3.165 3.163-8.316 0-11.481L55.299 11.642A8.059 8.059 0 0 0 49.56 9.28z"/><path d="M29.528 36.054c.392-.189.581-.427.697-.839 1.628-5.744 7.691-8.762 13.231-6.565.543.215.741.105 1.047-.34 3.033-4.417 7.253-6.373 12.541-5.61 6.195.894 10.635 6.212 10.631 12.467 0 .508.129.776.605 1.02 3.536 1.811 5.46 5.893 4.633 9.737-.929 4.319-4.516 7.217-8.946 7.22-5.063.003-10.126.001-15.188.001-5.044 0-10.088.001-15.132-.001-.487 0-.97-.02-1.456-.092-4.078-.605-7.083-3.615-7.66-7.908-.491-3.655 1.442-7.377 4.997-9.09zM59.667 54.417c-.167.167-9.871 8.03-10.24 8.16h6.759c-.033.205-17.265 13.756-17.432 14.09-.167-.502 4.877-6.754 5.855-10.372-1.902 0-7.929.335-9.871.335 0 .167 11.711-12.155 11.544-12.155"/></symbol><symbol viewBox="0 0 100 100" overflow="scroll" id="markers--incident--Shark_Sighting" xmlns="http://www.w3.org/2000/svg"><path fill="#FFF" d="M50 4.75L95.5 49l-46 47.75L2.5 51z"/><path d="M67.083 53.25S56.847 26.656 38.597 24.156c-.727.363 6.5 18.25 1.736 27.094-2.965 5.504 26.75 2 26.75 2z"/><path fill="#FFF" d="M43.083 95.3S-.667 55.55 5.833 53.8s7.75-5.95 14.5-5.95 8 6.45 14 6.45 8.25-6.5 15-6.5 9.125 6.5 15 6.5 8.375-6.5 15.5-6.5c6.5 0 6.875 4.5 12.25 4.5s3.25 6.5 3.25 6.5l-39.75 37.25-12.5-.75z"/><path d="M56.231 97.842l-13.868-.832-.456-.415c-.099-.089-9.93-9.031-19.478-18.509C2.469 58.271 3.143 55.486 3.504 53.99c.227-.936.909-1.62 1.874-1.88 2.523-.68 4.2-1.789 5.822-2.861 2.341-1.548 4.762-3.149 9.133-3.149 4.116 0 6.488 2.01 8.581 3.782 1.759 1.49 3.148 2.668 5.419 2.668 2.325 0 4.017-1.276 5.975-2.754 2.327-1.756 4.965-3.746 9.025-3.746 4.075 0 6.746 2.002 9.104 3.769 1.955 1.466 3.644 2.731 5.896 2.731 2.229 0 3.944-1.243 5.93-2.683 2.47-1.789 5.269-3.817 9.57-3.817 3.966 0 6.086 1.518 7.789 2.737 1.43 1.023 2.463 1.763 4.461 1.763 2.441 0 3.735 1.078 4.392 1.982 1.841 2.54.662 6.382.521 6.812l-.139.426-40.626 38.072zM43.804 93.59l11.132.668 38.844-36.4c.228-.946.405-2.525-.141-3.273-.097-.132-.391-.534-1.556-.534-3.122 0-4.915-1.284-6.498-2.417-1.562-1.118-2.909-2.083-5.752-2.083-3.167 0-5.279 1.531-7.517 3.151-2.271 1.646-4.62 3.349-7.983 3.349-3.419 0-5.851-1.822-7.996-3.431-2.105-1.578-4.095-3.069-7.004-3.069-2.888 0-4.846 1.477-6.917 3.04-2.149 1.622-4.585 3.46-8.083 3.46-3.554 0-5.747-1.858-7.682-3.497-1.87-1.585-3.485-2.953-6.318-2.953-3.318 0-5.032 1.134-7.202 2.568-1.613 1.067-3.423 2.265-6.062 3.094 1.78 4.699 19.52 22.654 36.735 38.327z"/><path d="M47.833 96s-22.181-19.681-26.25-23.75c-4-4-14.395-11.207-8.624-11.207s6.839 5.514 11.969 5.514S31.981 61 37.752 61s7.801 5.557 12.824 5.557S57.736 61 63.827 61c5.557 0 6.911 4.75 11.506 4.75s7.5-1.25 10.75-5-30.5 35-30.5 35l-7.75.25z"/><path d="M47.365 97.298l-.383-.339c-.906-.805-22.256-19.752-26.306-23.802-.983-.984-2.379-2.178-3.855-3.442-4.93-4.218-7.468-6.513-6.729-8.513.354-.956 1.318-1.441 2.867-1.441 3.44 0 5.437 1.69 7.197 3.183 1.478 1.251 2.753 2.331 4.771 2.331 2.06 0 3.532-1.111 5.237-2.397 1.963-1.48 4.187-3.159 7.587-3.159 3.412 0 5.666 1.688 7.654 3.179 1.702 1.275 3.173 2.378 5.17 2.378 1.975 0 3.467-1.082 5.194-2.334 2.085-1.511 4.448-3.223 8.057-3.223 3.334 0 5.338 1.485 7.105 2.796 1.473 1.092 2.636 1.954 4.4 1.954 4.186 0 6.66-1.096 9.451-4.185.147-.169.272-.313.382-.434l.153-.177.006.005c.375-.392.558-.466.979-.466h.824l.342.75c.272.597.039 1.053-.221 1.391l.004.003-.075.086a19.714 19.714 0 0 1-.476.544c-4.187 4.797-30.15 34.606-30.15 34.606l-.367.422-8.818.284zM12.773 62.329c.874 1.294 3.844 3.836 5.715 5.438 1.517 1.297 2.948 2.522 4.003 3.576 3.703 3.704 22.854 20.732 25.812 23.359l6.681-.216c2.407-2.765 16.098-18.482 24.248-27.835-1.184.261-2.468.381-3.898.381-2.611 0-4.298-1.249-5.928-2.458-1.59-1.179-3.092-2.292-5.578-2.292-2.777 0-4.61 1.329-6.552 2.735-1.914 1.387-3.894 2.821-6.699 2.821-2.852 0-4.813-1.469-6.708-2.89-1.83-1.372-3.559-2.667-6.116-2.667-2.541 0-4.241 1.283-6.042 2.643-1.899 1.433-3.863 2.914-6.782 2.914-2.959 0-4.803-1.562-6.429-2.938-1.631-1.382-3.04-2.575-5.54-2.575a3.55 3.55 0 0 0-.187.004z"/><g><path fill="#FFF" d="M46.119 94.571s-11.38-11.242-15.697-15.047c-5.311-4.681-10.1-5.702-4.33-5.776 5.77-.075 6.91 5.425 12.04 5.358 5.129-.067 7.481-5.605 13.251-5.68 5.82-.076 7.422 5.411 12.394 5.346 5.022-.065 7.087-5.65 13.178-5.729 5.557-.072-.528 2.809-3.027 6.665-.98 1.513-1.48 1.519-1.48 1.519L56.122 94.691l-10.003-.12z"/><path d="M56.475 95.694l-10.771-.129-.287-.284c-.113-.111-11.408-11.266-15.655-15.008-1.835-1.617-3.607-2.786-4.902-3.641-1.758-1.16-2.641-1.742-2.343-2.759.303-1.032 1.552-1.101 3.564-1.127l.13-.001c3.259 0 5.206 1.607 6.925 3.025 1.518 1.252 2.828 2.334 4.904 2.334 2.254-.029 3.861-1.186 5.723-2.525 2.026-1.459 4.323-3.112 7.609-3.154l.133-.001c3.298 0 5.379 1.615 7.215 3.039 1.596 1.238 2.974 2.309 4.972 2.309 2.14-.027 3.652-1.154 5.403-2.458 2.031-1.512 4.333-3.226 7.85-3.271l.212-.001c1.311 0 2.577.139 2.973 1.145.452 1.147-.601 2.13-2.196 3.617-1.046.975-2.348 2.188-3.164 3.448-.656 1.013-1.271 1.64-1.835 1.872l-16.46 13.57zm-9.94-2.119l9.233.111 16.315-13.454.143-.002c.127-.103.421-.383.864-1.066.95-1.467 2.352-2.773 3.479-3.823.427-.398.957-.893 1.308-1.273a8.498 8.498 0 0 0-.721-.025l-.187.001c-2.868.037-4.72 1.416-6.68 2.876-1.86 1.385-3.784 2.817-6.499 2.853h-.002c-2.781 0-4.567-1.387-6.296-2.727-1.735-1.348-3.376-2.62-5.988-2.62l-.107.001c-2.654.034-4.507 1.367-6.467 2.777-1.957 1.409-3.98 2.865-6.785 2.901l-.105.001c-2.794 0-4.514-1.419-6.177-2.791-1.601-1.321-3.112-2.568-5.652-2.568l-.104.001c-.166.002-.319.005-.46.009l.314.207c1.344.887 3.184 2.101 5.123 3.811 3.905 3.439 13.65 13.025 15.451 14.8z"/></g><g><path d="M50.56 99.899c-4.512 0-8.746-1.746-11.921-4.922L5.803 62.14C2.627 58.966.88 54.731.88 50.219s1.748-8.746 4.923-11.921L38.639 5.461C41.813 2.285 46.048.538 50.56.538s8.746 1.749 11.92 4.923l32.839 32.837c6.573 6.573 6.573 17.268 0 23.842L62.48 94.977c-3.173 3.176-7.408 4.922-11.92 4.922zm0-90.619a8.06 8.06 0 0 0-5.74 2.362L11.983 44.478a8.06 8.06 0 0 0-2.362 5.74 8.06 8.06 0 0 0 2.362 5.74L44.82 88.797c3.046 3.044 8.431 3.044 11.479 0l32.839-32.838c3.163-3.165 3.163-8.316 0-11.481L56.299 11.642A8.059 8.059 0 0 0 50.56 9.28z"/></g></symbol><symbol viewBox="0 0 30 30" id="markers--incident--Ship_Incident" xmlns="http://www.w3.org/2000/svg"><path fill="#FFF" d="M15.1 1.2l13.8 13.4L15 29 .8 15.2z"/><path d="M15 30c-1.4 0-2.6-.5-3.6-1.5l-9.9-9.9C.5 17.6 0 16.4 0 15s.5-2.6 1.5-3.6l9.9-9.9C12.4.5 13.6 0 15 0s2.6.5 3.6 1.5l9.9 9.9c2 2 2 5.2 0 7.2l-9.9 9.9c-1 .9-2.2 1.5-3.6 1.5zm0-27.4c-.7 0-1.3.3-1.7.7l-9.9 9.9c-.5.5-.7 1.1-.7 1.7 0 .7.3 1.3.7 1.7l9.9 9.9c.9.9 2.5.9 3.5 0l9.9-9.9c1-1 1-2.5 0-3.5l-9.9-9.9c-.5-.3-1.1-.6-1.8-.6z"/><path d="M22 15.1c-.2 0-.3-.1-.3-.3v-1.1c0-.2-.1-.3-.3-.3H20c-.2 0-.3-.1-.3-.3V11c0-.2-.1-.3-.3-.3h-1.3c-.2 0-.3.1-.3.3v2c0 .2-.1.3-.3.3h-1c-.2 0-.3-.1-.3-.3v-2.1c0-.2-.1-.3-.3-.3h-1.3c-.2 0-.3.1-.3.3V13c0 .2-.1.3-.3.3h-1c-.2 0-.3-.1-.3-.3v-2.1c0-.2-.1-.3-.3-.3h-1.3c-.2 0-.3.1-.3.3V13c0 .2-.1.3-.3.3H8.9c-.2 0-.3.1-.3.3v1.1c0 .2-.1.3-.3.3H5.4c-.2 0-.2.1-.1.2L8.5 19c.1.1.4.2.5.2h11.6c.2 0 .4-.1.6-.2l3.7-3.7c.1-.1.1-.2-.1-.2H22z"/></symbol><symbol viewBox="0 0 30 30" id="markers--incident--Tree_Hazard" xmlns="http://www.w3.org/2000/svg"><path fill="#FFF" d="M15.2 1.3l13.7 13.3L15 29 .9 15.2z"/><path d="M15.1 30c-1.4 0-2.6-.5-3.6-1.5l-9.9-9.9C.6 17.6.1 16.4.1 15s.5-2.6 1.5-3.6l9.9-9.9c1-1 2.2-1.5 3.6-1.5s2.6.5 3.6 1.5l9.9 9.9c2 2 2 5.2 0 7.2l-9.9 9.9c-1 1-2.3 1.5-3.6 1.5zm0-27.4c-.7 0-1.3.3-1.7.7l-9.9 9.9c-.5.5-.8 1.1-.8 1.8s.3 1.3.7 1.7l9.9 9.9c.9.9 2.5.9 3.5 0l9.9-9.9c1-1 1-2.5 0-3.5l-9.9-9.9c-.5-.4-1.1-.7-1.7-.7z"/><path d="M22.1 16.5v-.4c.9-1.7.2-3.8-1.5-4.5-.2-.1-.2-.1-.2-.3.3-1.7-.2-3.1-1.6-4.2-1.6-1.2-3.9-1-5.3.4-.1.1-.2.1-.4.1-1.2-.4-2.6.1-3.3 1.2-.8 1.2-.6 2.7.4 3.7l3.5 3.5 3.5 3.5c.1.1.2.2.4.3 1.1.8 2.4.8 3.6-.1.9-.7 1.3-2 .9-3.2z"/><path d="M9.636 21.727L7.87 19.959l5.798-5.798 1.768 1.767z"/></symbol><symbol viewBox="0 0 30 30" id="markers--incident--Vertebrate_Animal_Plague" xmlns="http://www.w3.org/2000/svg"><path fill="#FFF" d="M15.1 1.3l13.8 13.3L15 29 .8 15.2z"/><path d="M15 30c-1.4 0-2.6-.5-3.6-1.5l-9.9-9.9C.5 17.6 0 16.4 0 15s.5-2.6 1.5-3.6l9.9-9.9C12.4.5 13.6 0 15 0s2.6.5 3.6 1.5l9.9 9.9c2 2 2 5.2 0 7.2l-9.9 9.9c-.9 1-2.2 1.5-3.6 1.5zm0-27.4c-.7 0-1.3.3-1.7.7l-9.9 9.9c-.5.5-.7 1.1-.7 1.7 0 .7.3 1.3.7 1.7l9.9 9.9c.9.9 2.5.9 3.5 0l9.9-9.9c1-1 1-2.5 0-3.5l-9.9-9.9c-.5-.3-1.1-.6-1.8-.6z"/><path d="M19.3 14.9c-1 1.4-10.2.7-11.8.4s4.5-5.5 7.9-4.7c3.3.7 4 4 3.9 4.3z"/><ellipse transform="rotate(-76.461 10.963 11.456)" cx="11" cy="11.5" rx="1.7" ry="1.1"/><path d="M17.1 19.4h-.3c-.3 0-.6-.3-.6-.6s.3-.6.6-.6c4.7 0 5.5-.8 5.6-1 0 0 .1-.1 0-.3-.5-.8-2.5-1.8-3.8-1.8-.3 0-.6-.3-.6-.6s.3-.6.6-.6c1.6 0 4 1.1 4.8 2.4.3.5.3 1 0 1.5-.7 1.1-2.8 1.6-6.3 1.6z"/></symbol><symbol viewBox="0 0 30 30" id="markers--incident--Water_pollution" xmlns="http://www.w3.org/2000/svg"><path fill="#FFF" d="M15 1.3l13.7 13.2-13.8 14.3L.8 15.1z"/><path d="M7.5 21.5l7.6 6.9 8-6.6-1.9-1.8-7.9-.1-7.3 1z"/><path d="M12.1 21.5c-.3 0-.7-.1-.9-.2l-2.6-1.2-2.6.8-.8-2.3 2.5-.9c.5-.2 1.2-.1 1.7.1L12 19l2.8-1c.5-.2 1.1-.2 1.6 0l2.8 1h.1l2.4-.9c.5-.2 1.1-.2 1.6-.1l2.5.7-.7 2.3-2.5-.7h-.1l-2.4.9c-.5.2-1.1.2-1.6 0l-2.8-1h-.1l-2.8 1c-.2.3-.5.3-.7.3z"/><path fill="#FFF" d="M12.2 23c-.3 0-.7-.1-.9-.2l-2.2-1-2.1.7-.8-2.3 2.2-.7c.5-.2 1.2-.1 1.7.1l2.2 1 2.3-.9c.5-.2 1.1-.2 1.6 0l2.4.8h.1l2-.7c.5-.2 1.1-.2 1.6-.1l2.1.6-.7 2.3-2.1-.6h-.1l-2 .7c-.5.2-1.1.2-1.6 0l-2.6-.7h-.1l-2.4.9c-.1.1-.4.1-.6.1z"/><path d="M14.9 29.8c-1.4 0-2.6-.5-3.6-1.5l-9.8-9.8c-1-1-1.5-2.2-1.5-3.6s.5-2.6 1.5-3.6l9.8-9.8c1-1 2.2-1.5 3.6-1.5s2.6.5 3.6 1.5l9.8 9.8c2 2 2 5.2 0 7.1l-9.8 9.8c-1 1.1-2.3 1.6-3.6 1.6zm0-27.2c-.7 0-1.3.3-1.7.7l-9.8 9.8c-.5.5-.7 1.1-.7 1.7 0 .7.3 1.3.7 1.7l9.8 9.8c.9.9 2.5.9 3.4 0l9.8-9.8c.9-.9.9-2.5 0-3.4l-9.8-9.8c-.4-.4-1.1-.7-1.7-.7z"/><path d="M10.2 15.6c-.2 0-.5-.1-.6-.3-.4-.4-.4-.9 0-1.3l1.6-1.6-1.5-1.5c-.4-.4-.4-.9 0-1.3s.9-.4 1.3 0l2.2 2.2c.4.4.4.9 0 1.3L11 15.3c-.4.2-.6.3-.8.3z"/><path d="M18.7 13.2h-6.4c-.4 0-.8-.3-.8-.8 0-.4.3-.8.8-.8h6.4c.4 0 .8.3.8.8s-.3.8-.8.8z"/><path d="M18.8 16.1c-.2 0-.4-.1-.5-.3-.2-.3-.1-.6.2-.8.8-.5 2.2-1.7 2.2-2.5 0-.9-1.3-2.1-2.2-2.7-.2-.2-.3-.5-.1-.8.2-.2.5-.3.8-.1.3.2 2.6 1.8 2.6 3.6 0 1.7-2.4 3.3-2.7 3.4-.1.2-.2.2-.3.2zM16.4 15.5c-.1 0-.3-.1-.3-.3V9.7c0-.1.1-.3.3-.3s.3.1.3.3v5.5c-.1.2-.2.3-.3.3zM14.2 15.5c-.1 0-.3-.1-.3-.3V9.7c0-.1.1-.3.3-.3s.3.1.3.3v5.5c-.1.2-.2.3-.3.3z"/><path d="M18.3 9.6l.6 2.8-.6 3 3.1-1.8v-1.8z"/><circle fill="#FFF" cx="20" cy="11.5" r=".6"/></symbol><symbol viewBox="0 0 30 30" id="markers--media--Media_Assembly_Point" xmlns="http://www.w3.org/2000/svg"><circle fill="#FFF" cx="15" cy="15" r="14.1"/><path d="M15 30C6.8 30 0 23.2 0 15S6.8 0 15 0s15 6.8 15 15-6.8 15-15 15zm0-28.1C7.8 1.9 1.9 7.8 1.9 15S7.8 28.1 15 28.1 28.1 22.2 28.1 15 22.2 1.9 15 1.9z"/><path d="M20.6 11.2h-5.2L18.6 8l-.5-.5-3.2 3.3-3.3-3.3-.4.5 3.1 3.3H9.5c-.6 0-1 .5-1 1v8.3c0 .6.5 1 1 1h11.2c.6 0 .9-.5.9-1v-8.3c0-.6-.5-1.1-1-1.1zm-.9 8.5h-9.4v-6.6h9.4v6.6z"/></symbol><symbol viewBox="0 0 30 30" id="markers--outage--Electricity_Outage" xmlns="http://www.w3.org/2000/svg"><circle fill="#FFF" cx="15" cy="15" r="14.1"/><path d="M16.9 21.6h-3.8c-.3 0-.5-.2-.5-.5s.2-.5.5-.5h3.8c.3 0 .5.2.5.5s-.2.5-.5.5zM15 24.5c-.1 0-.2 0-.3-.1l-1.5-1c-.2-.2-.3-.4-.2-.6.1-.2.3-.4.5-.4h3c.2 0 .4.1.5.3.1.2 0 .4-.2.6l-1.5 1.1c-.1.1-.2.1-.3.1zM17.1 19.7c.2 0 .3-.3.3-.5 0-.9.9-2.4 1.3-2.9v-.2c1-1.2 1.7-2.9 1.7-4.4 0-2.9-2.4-5.3-5.4-5.3s-5.4 2.4-5.4 5.3c0 1.5.7 3.2 1.7 4.4v.1c.1.2 1.3 1.8 1.3 2.9 0 .3.2.5.5.5l4 .1z"/><path fill="#ED2F22" d="M15 0C6.8 0 0 6.8 0 15s6.8 15 15 15 15-6.8 15-15S23.2 0 15 0zM1.9 15C1.9 7.8 7.8 1.9 15 1.9c3.6 0 6.8 1.4 9.1 3.7L5.5 24.1c-2.2-2.3-3.6-5.5-3.6-9.1zM15 28.1c-3 0-5.8-1-8.1-2.8L25.3 6.9c1.8 2.2 2.8 5.1 2.8 8.1 0 7.2-5.9 13.1-13.1 13.1z"/></symbol><symbol viewBox="0 0 30 30" id="markers--outage--Gas_Outage" xmlns="http://www.w3.org/2000/svg"><circle fill="#FFF" cx="15" cy="15" r="14.1"/><path d="M17.8 9.5V6.6h-5.6v2.9c-1.7.4-2.8 2.1-2.8 3.9v5.3c0 1.5.9 2.2 1.9 2.6v.8s.7 1.2 3.8 1.2c3.2 0 3.8-1.2 3.8-1.2v-.9c.9-.6 1.9-1.1 1.9-2.5v-5.3c-.2-1.9-1.3-3.6-3-3.9zm-4.7-1.1h1.1c-.1.1-.1.3-.1.4 0 .2.1.4.2.6h-1.2v-1zm3.8 1h-1.3c.1-.2.2-.3.2-.6 0-.2-.1-.3-.1-.4h1.2v1z"/><path fill="#ED2F22" d="M15 0C6.8 0 0 6.8 0 15s6.8 15 15 15 15-6.8 15-15S23.2 0 15 0zM1.9 15C1.9 7.8 7.8 1.9 15 1.9c3.6 0 6.8 1.4 9.1 3.7L5.5 24.1c-2.2-2.3-3.6-5.5-3.6-9.1zM15 28.1c-3 0-5.8-1-8.1-2.8L25.3 6.9c1.8 2.2 2.8 5.1 2.8 8.1 0 7.2-5.9 13.1-13.1 13.1z"/></symbol><symbol viewBox="0 0 30 30" id="markers--outage--Water_Outage" xmlns="http://www.w3.org/2000/svg"><circle fill="#FFF" cx="15" cy="15" r="14.1"/><path d="M4.7 11.2h5.6c0-.7.8-1.9 1.9-1.9V8h-2c-.6 0-1.1-.6-1.1-1.2s.6-1.1 1.1-1.1H17c.7 0 1.1.6 1.1 1.1 0 .7-.6 1.2-1.1 1.2h-2v1.4c1.4 0 1.9 1.2 1.9 1.9h1.5c2.2 0 4.1 1.3 4.1 3.6v3.9h-5.6V16H4.7v1.9H1.9V9.8l2.8-4.1v5.5zM19.8 19.8l1.5 2.7c.3.6.4 1.3 0 1.9-.5.9-1.7 1.2-2.5.8-.9-.6-1.2-1.7-.7-2.6l1.5-2.7c0-.2.2-.2.2-.1z"/><path fill="#ED2F22" d="M15 0C6.8 0 0 6.8 0 15s6.8 15 15 15 15-6.8 15-15S23.2 0 15 0zM1.9 15C1.9 7.8 7.8 1.9 15 1.9c3.6 0 6.8 1.4 9.1 3.7L5.5 24.1c-2.2-2.3-3.6-5.5-3.6-9.1zM15 28.1c-3 0-5.8-1-8.1-2.8L25.3 6.9c1.8 2.2 2.8 5.1 2.8 8.1 0 7.2-5.9 13.1-13.1 13.1z"/></symbol><symbol viewBox="0 0 30 30" id="markers--quarantine--Special_Restricted_area_Animal_Health" xmlns="http://www.w3.org/2000/svg"><circle fill="#FFF" cx="15" cy="15" r="14.1"/><path d="M11.6 11.3c1.3 0 2.3-1.3 2.3-3.1 0-1.7-1-3.1-2.2-3.2-1.3 0-2.3 1.3-2.3 3.1s1 3.2 2.2 3.2zm7 0c1.3 0 2.3-1.3 2.3-3.1 0-1.7-1-3.1-2.2-3.2-1.3 0-2.3 1.3-2.3 3.1-.1 1.8.9 3.2 2.2 3.2zM8.2 14.9c1-.2 1.7-1.4 1.4-2.8-.3-1.4-1.3-2.3-2.4-2.1-1 .2-1.7 1.4-1.4 2.8.3 1.4 1.3 2.3 2.4 2.1zm14.9-4.7c-1-.3-2.1.7-2.4 2.1-.3 1.4.3 2.6 1.3 2.9s2.1-.7 2.4-2.1c.3-1.4-.3-2.7-1.3-2.9zM21.5 18c-.8-1.7-1.9-3.6-3.5-4.7-1.2-.7-2.7-1-4.1-.7-1.1.3-2.2 1.1-2.9 2.1-.8 1-1.6 2.2-2.2 3.3-.7 1.1-1.2 2.3-1.2 3.7 0 1.2.5 2.2 1.3 2.7.4.2.7.4 1.1.4.8 0 1.6-.6 2.3-.9.8-.5 1.7-.8 2.6-.8 1.2 0 2.2.6 3.1 1.3.7.7 2 .9 2.9.4 1-.6 1.4-1.8 1.5-2.9.1-1.2-.3-2.4-.8-3.6 0-.1-.1-.2-.1-.3zm-1 1.8h-1.9v1.9h-.9v-1.9h-1.9v-.9h1.9V17h.9v1.9h1.9v.9z"/><path fill="#ED2F22" d="M15.3 0C6.9-.1.1 6.5 0 14.7S6.5 29.9 14.7 30c8.3.1 15.2-6.5 15.3-14.7C30.1 7 23.5.1 15.3 0zM1.9 14.8C2 7.6 8 1.8 15.2 1.9c3.6.1 6.7 1.5 9 3.8L5.4 23.9c-2.2-2.3-3.6-5.6-3.5-9.1zm12.9 13.3c-3-.1-5.8-1.1-8-2.9L25.5 7.1c1.7 2.2 2.6 5.1 2.6 8.1-.1 7.2-6.1 13-13.3 12.9z"/></symbol><symbol viewBox="0 0 30 30" id="markers--quarantine--Special_Restricted_area_Plant_Health" xmlns="http://www.w3.org/2000/svg"><circle fill="#FFF" cx="15" cy="15" r="14.1"/><path d="M13.5 8.1C11.8 7.5 10.2 6 10.2 6s-2.6 3.7-1.9 8.7c.4 2.1 2.8 8.1 10.2 7.1.5.7.7 1.7.9 2.5.4.1 1.2.4 1.2.4-.4-2.1-1.1-4.1-2.3-5-3.1-2.2-4.5-5.1-5.2-7.1l-.1-.5V14h-.9v-1.9h-1.9v-.9h1.9V9.4h.9v1.9h2v.9h-1.6c.7 1.5 2.2 4 5.2 6.2.9.7 2.6.9 2.6.9.2 0 3.4-7-7.7-11.2z"/><path fill="#ED2F22" d="M15 0C6.8 0 0 6.8 0 15s6.7 15 15 15 15-6.7 15-15S23.2 0 15 0zM1.9 15C1.9 7.8 7.8 1.9 15 1.9c3.6 0 6.7 1.4 9.1 3.7L5.5 24.1c-2.2-2.4-3.6-5.5-3.6-9.1zM15 28.1c-3 0-5.8-1-8.1-2.8L25.3 6.9c1.8 2.2 2.8 5.1 2.8 8.1 0 7.2-5.9 13.1-13.1 13.1z"/></symbol><symbol viewBox="0 0 30 30" id="markers--quarantine--Special_Restricted_area_Quarantine" xmlns="http://www.w3.org/2000/svg"><circle fill="#FFF" cx="15" cy="15" r="14.1"/><path d="M18.4 16.3c1.6-1 2.4-2.8 2.4-4.8 0-3.2-2.6-5.7-5.8-5.7s-5.7 2.5-5.7 5.7c0 2 .7 3.7 2.3 4.8-3.7.3-6.9 3.4-6.9 7.2v.1c2.8 2.8 6.1 4.6 10.3 4.6s7.5-1.8 10.3-4.7v-.1c0-3.7-3.2-6.8-6.9-7.1zm2.2 6.2h-1.9v1.9h-.9v-1.9h-1.9v-.9h1.9v-1.9h.9v1.9h1.9v.9z"/><path fill="#ED2F22" d="M15 0C6.8 0 0 6.8 0 15s6.7 15 15 15 15-6.7 15-15S23.2 0 15 0zM1.9 15C1.9 7.8 7.8 1.9 15 1.9c3.6 0 6.7 1.4 9.1 3.7L5.5 24.1c-2.2-2.4-3.6-5.5-3.6-9.1zM15 28.1c-3 0-5.8-1-8.1-2.8L25.3 6.9c1.8 2.2 2.8 5.1 2.8 8.1 0 7.2-5.9 13.1-13.1 13.1z"/></symbol><symbol viewBox="0 0 30 30" id="markers--social--Facebook" xmlns="http://www.w3.org/2000/svg"><circle fill="#FFF" cx="15" cy="15" r="14.1"/><path fill="#1E5DA7" d="M15 30C6.8 30 0 23.2 0 15S6.8 0 15 0s15 6.8 15 15-6.8 15-15 15zm0-28.1C7.8 1.9 1.9 7.8 1.9 15S7.8 28.1 15 28.1 28.1 22.2 28.1 15 22.2 1.9 15 1.9z"/><path fill="#1E5DA7" d="M18.5 8.4h-2.2c-1.9 0-3.2 1.3-3.2 3.2v1.5h-1.6c-.2 0-.3.1-.3.3v2.3c0 .2.1.3.3.3h1.7v5.3c0 .2.1.3.3.3h2.3c.2 0 .3-.1.3-.3V16h2.5c.2 0 .3-.1.3-.3v-2.2c0-.1 0-.1-.1-.2 0-.1-.1-.1-.2-.1h-2.5V12c0-.6.2-.9 1-.9h1.5c.2 0 .3-.1.3-.3v-2c-.1-.3-.2-.4-.4-.4z"/></symbol><symbol viewBox="0 0 30 30" id="markers--social--Instagram" xmlns="http://www.w3.org/2000/svg"><circle fill="#FFF" cx="15" cy="15" r="14.1"/><path fill="#1E5DA7" d="M15 30C6.8 30 0 23.2 0 15S6.8 0 15 0s15 6.8 15 15-6.8 15-15 15zm0-28.1C7.8 1.9 1.9 7.8 1.9 15S7.8 28.1 15 28.1 28.1 22.2 28.1 15 22.2 1.9 15 1.9z"/><path fill="#1E5DA7" d="M10.1 8.4h9.8c.9 0 1.7.7 1.7 1.7v9.8c0 1-.8 1.7-1.7 1.7h-9.8c-.9 0-1.7-.7-1.7-1.7v-9.8c0-1 .8-1.7 1.7-1.7zm7.3 1.9c-.3 0-.6.3-.6.6v1.4c0 .3.3.6.6.6H19c.3 0 .6-.3.6-.6v-1.4c0-.3-.3-.6-.6-.6h-1.6zm2.3 3.8h-1.1c.1.4.2.7.2 1 0 2.2-1.5 3.9-3.8 3.9s-3.8-1.8-3.8-3.9c0-.4.1-.7.2-1h-1.1v5.4c0 .3.3.6.6.6h8.3c.3 0 .6-.3.6-.6l-.1-5.4zm-4.7-1c-1 0-1.9.8-1.9 1.9s.8 1.9 1.9 1.9 1.9-.8 1.9-1.9-.9-1.9-1.9-1.9z"/></symbol><symbol viewBox="0 0 30 30" id="markers--social--Twitter" xmlns="http://www.w3.org/2000/svg"><circle fill="#FFF" cx="15" cy="15" r="14.1"/><path fill="#1E5DA7" d="M15 30C6.8 30 0 23.2 0 15S6.8 0 15 0s15 6.8 15 15-6.8 15-15 15zm0-28.1C7.8 1.9 1.9 7.8 1.9 15S7.8 28.1 15 28.1 28.1 22.2 28.1 15 22.2 1.9 15 1.9z"/><path fill="#1E5DA7" d="M21.6 11c-.5.2-1 .4-1.5.5.6-.4.9-.8 1.2-1.5-.6.3-1.1.6-1.7.7-.5-.6-1.2-.8-2-.8-1.5 0-2.7 1.2-2.7 2.7 0 .2 0 .4.1.7-2.2-.1-4.2-1.2-5.5-2.8-.2.4-.4.8-.4 1.3 0 .9.5 1.8 1.2 2.2-.5 0-.8-.1-1.2-.4 0 1.3.9 2.4 2.2 2.6-.2.1-.5.1-.8.1-.2 0-.4 0-.5-.1.4 1 1.3 1.9 2.5 1.9-.9.8-2.1 1.1-3.4 1.1h-.7c1.2.7 2.6 1.2 4.1 1.2 5 0 7.7-4.1 7.7-7.7v-.4c.5-.4 1-.9 1.4-1.3z"/></symbol><symbol viewBox="0 0 30 30" id="markers--social--Youtube" xmlns="http://www.w3.org/2000/svg"><circle fill="#FFF" cx="15" cy="15" r="14.1"/><path fill="#1E5DA7" d="M15 30C6.8 30 0 23.2 0 15S6.8 0 15 0s15 6.8 15 15-6.8 15-15 15zm0-28.1C7.8 1.9 1.9 7.8 1.9 15S7.8 28.1 15 28.1 28.1 22.2 28.1 15 22.2 1.9 15 1.9z"/><path fill="#1E5DA7" d="M21.6 12.4c0-1.1-.8-2.1-2-2.1h-9.2c-1.1 0-2 .9-2 2.1v5.2c0 1.1.8 2.1 2 2.1h9.2c1.1 0 2-.9 2-2.1v-5.2zm-7.9 4.8v-5l3.8 2.4-3.8 2.6z"/></symbol><symbol viewBox="0 0 30 30" id="markers--warning--Advice" xmlns="http://www.w3.org/2000/svg"><path fill="#FBE032" d="M2.2 24.9c-1 2.1 0 3.7 2.3 3.7h21.2c2.3 0 3.3-1.7 2.3-3.7l-11-22c-1-2.1-2.7-2.1-3.7 0l-11.1 22z"/><path d="M25.7 30H4.6C3 30 1.7 29.4 1 28.3c-.7-1.1-.7-2.5 0-3.9L12 2.3C12.8.8 13.9 0 15.1 0s2.3.8 3.1 2.3l11 22.1c.7 1.4.7 2.8 0 3.9-.6 1.1-1.9 1.7-3.5 1.7zM15.1 2.7s-.3.1-.7.8l-11 22.1c-.3.6-.3 1.1-.2 1.4.2.3.6.5 1.3.5h21.2c.6 0 1.1-.2 1.3-.5.2-.3.1-.8-.2-1.4l-11-22.1c-.3-.7-.6-.8-.7-.8z"/><g><path d="M17.3 21.6c.2.2 0 .1.2.2l.1.2c-1.1 1.1-2.4 2-4 2.4-.3.1-.6.1-1 .1-.5 0-.8-.4-.8-.9 0-.4.1-.8.2-1.2.3-1.3.7-2.7 1.1-4 .1-.4 0-.5-.4-.3-.6.2-1.1.4-1.7.6-.1-.2-.1-.2-.1-.4.5-.4.9-.9 1.6-1.3.9-.5 1.9-.9 3-1.1h.2c.8-.1 1.1.3 1.1.8s-.1.9-.2 1.4c-.3 1.2-.7 2.4-1.1 3.7 0 .2-.1.3-.1.5s.1.3.4.2c.5-.2 1-.4 1.4-.6-.1-.2 0-.2.1-.3z"/><circle cx="15.8" cy="13" r="1.9"/></g></symbol><symbol viewBox="0 0 30 30" id="markers--warning--Community_Update" xmlns="http://www.w3.org/2000/svg"><circle fill="#1E5DA7" cx="15" cy="15" r="13.5"/><path fill="#FFF" d="M15 29.9C6.8 29.9.2 23.2.2 15S6.8.1 15 .1 29.9 6.8 29.9 15 23.2 29.9 15 29.9zm0-27.1C8.3 2.8 2.9 8.3 2.9 15S8.3 27.2 15 27.2 27.2 21.7 27.2 15 21.7 2.8 15 2.8z"/><g fill="#FFF"><path d="M18.3 19.2c.2.2.1.1.2.3l.1.2c-1.4 1.4-2.9 2.4-4.8 2.9-.4.1-.8.1-1.2.1-.6-.1-1-.4-1-1.1 0-.5.1-1 .2-1.5.4-1.6.9-3.2 1.3-4.8.1-.5 0-.6-.5-.4-.7.2-1.3.5-2 .8-.1-.2-.1-.2-.1-.5.6-.5 1.1-1.1 1.9-1.5 1.1-.6 2.3-1.1 3.6-1.4h.2c.9-.2 1.3.3 1.3.9 0 .5-.1 1.1-.3 1.6-.4 1.5-.9 2.9-1.3 4.4-.1.2-.1.4-.1.6 0 .3.1.4.4.3.6-.2 1.2-.5 1.7-.7.2-.1.3-.2.4-.2z"/><circle cx="16.5" cy="8.8" r="2.3"/></g></symbol><symbol viewBox="0 0 30 30" id="markers--warning--Emergency_Warning" xmlns="http://www.w3.org/2000/svg"><path fill="#EC0A47" d="M2.2 24.9c-1 2.1 0 3.7 2.3 3.7h21.2c2.3 0 3.3-1.7 2.3-3.7l-11-22c-1-2.1-2.7-2.1-3.7 0l-11.1 22z"/><path d="M25.7 30H4.5C3 30 1.7 29.4 1 28.3c-.7-1.1-.7-2.5 0-3.9L12 2.3C12.8.8 13.9 0 15.1 0s2.3.8 3.1 2.3l11 22.1c.7 1.4.7 2.8 0 3.9-.6 1.1-1.9 1.7-3.5 1.7zM15.1 2.7s-.3.1-.7.8l-11 22.1c-.3.6-.3 1.1-.2 1.4.2.3.6.5 1.3.5h21.2c.6 0 1.1-.2 1.3-.5.2-.3.1-.8-.2-1.4l-11-22.1c-.3-.7-.6-.8-.7-.8z"/><path fill="#FFF" d="M11.6 24.1c0-.5.4-1.4 1.5-1.4.8 0 1.4.6 1.4 1.5 0 .8-.6 1.3-1.5 1.3-.6 0-1.4-.4-1.4-1.4zm1.2-3c-.1 0-.1-.1-.1-.2-.1-2.2-1-7.8-1-8.8 0-.9.4-1.7 1.4-1.7.9 0 1.5.5 1.4 1.5 0 .9-1 6.9-1.1 9 0 .1 0 .2-.2.2h-.4z"/><g><path fill="#FFF" d="M15.5 24.1c0-.5.4-1.4 1.5-1.4.8 0 1.4.6 1.4 1.5 0 .8-.6 1.3-1.5 1.3-.7 0-1.4-.4-1.4-1.4zm1.1-3c-.1 0-.1-.1-.1-.2-.1-2.2-1-7.8-1-8.8 0-.9.4-1.7 1.4-1.7.9 0 1.5.5 1.4 1.5 0 .9-1 6.9-1.1 9 0 .1 0 .2-.2.2h-.4z"/></g></symbol><symbol viewBox="0 0 30 30" id="markers--warning--Evacuate" xmlns="http://www.w3.org/2000/svg"><path d="M2.1 24.9c-1 2.1 0 3.7 2.3 3.7h21.2c2.3 0 3.3-1.7 2.3-3.7l-11-22.1c-1-2.1-2.7-2.1-3.7 0L2.1 24.9z"/><path fill="#EC0A47" d="M25.6 30H4.5c-1.6 0-2.9-.6-3.5-1.7-.7-1.1-.7-2.5 0-3.9L12 2.3C12.7.8 13.8 0 15 0s2.3.8 3.1 2.3l11 22.1c.7 1.4.7 2.8 0 3.9-.6 1.1-1.9 1.7-3.5 1.7zM15 2.7s-.3.1-.7.8l-11 22.1c-.3.6-.3 1.1-.2 1.4.2.3.6.5 1.3.5h21.2c.6 0 1.1-.2 1.3-.5.2-.3.1-.8-.2-1.4l-11-22.1c-.3-.7-.6-.8-.7-.8z"/><g fill="#FFF"><circle cx="15.8" cy="13.8" r="1.1"/><path d="M19 17.5l-1.3-.1-1.8-1.8-.3-.3c-.5-.2-1.2-.1-1.2-.1h-2.7c-.2 0-.4.1-.5.2l-1.7 2.3c-.2.3-.2.7.1.9.1.1.2.1.4.1s.4-.1.5-.2l1.6-2.1h1.2c-.1.2-.2.3-.4.5-.6.9-.7 1.8-.8 2.4V22.1H8.9c-.3 0-.6.3-.6.6s.3.6.6.6h3.7c.3 0 .6-.3.6-.6l.2-2.3h.2l2.6 4.7c.1.2.3.3.5.3.1 0 .2 0 .3-.1.3-.2.4-.5.2-.8l-2.4-4.4c-.1-.4-.1-.7 0-1.1.1-.6.5-1.3.8-2.1l1.5 1.4c.1.1.2.2.4.2l1.5.1c.3 0 .6-.2.6-.6 0-.2-.3-.5-.6-.5z"/></g><g><path fill="#FFF" d="M16.4 21.7H20v1.4l2.4-2.3-2.4-2.4v1.4h-4.6z"/></g></symbol><symbol viewBox="0 0 30 30" id="markers--warning--Warning-Watch_and_Act" xmlns="http://www.w3.org/2000/svg"><path fill="#F57F2F" d="M2.2 24.9c-1 2.1 0 3.7 2.3 3.7h21.2c2.3 0 3.3-1.7 2.3-3.7l-11-22c-1-2.1-2.7-2.1-3.7 0l-11.1 22z"/><path d="M25.7 30H4.5C3 30 1.7 29.4 1 28.3c-.7-1.1-.7-2.5 0-3.9L12 2.3C12.8.8 13.9 0 15.1 0s2.3.8 3.1 2.3l11 22.1c.7 1.4.7 2.8 0 3.9-.6 1.1-1.9 1.7-3.5 1.7zM15.1 2.7s-.3.1-.7.8l-11 22.1c-.3.6-.3 1.1-.2 1.4.2.3.6.5 1.3.5h21.2c.6 0 1.1-.2 1.3-.5.2-.3.1-.8-.2-1.4l-11-22.1c-.3-.7-.6-.8-.7-.8z"/><g><path d="M13.7 23.6c0-.5.4-1.3 1.5-1.3.8 0 1.4.6 1.4 1.4 0 .8-.5 1.3-1.4 1.3-.7 0-1.5-.4-1.5-1.4zm1.2-2.8c-.1 0-.1-.1-.1-.2-.1-2.1-.9-7.5-.9-8.4s.4-1.6 1.3-1.6 1.4.5 1.4 1.5c0 .9-1 6.6-1.1 8.6 0 .1 0 .2-.2.2l-.4-.1z"/></g></symbol><symbol viewBox="0 0 93.75 93.75" overflow="scroll" id="markers--weather--Cyclone" xmlns="http://www.w3.org/2000/svg"><path fill="#fff" d="M91.084 43.807L46.908 90.6 1.773 45.767 47.389.442z"/><path d="M46.87 93.75c-4.256 0-8.25-1.647-11.246-4.644L4.644 58.123C1.649 55.13 0 51.133 0 46.875c0-4.257 1.65-8.252 4.645-11.247L35.624 4.645C38.618 1.648 42.614 0 46.87 0s8.251 1.65 11.246 4.645l30.982 30.983c6.201 6.201 6.201 16.293 0 22.495L58.117 89.106c-2.994 2.997-6.99 4.644-11.246 4.644zm0-85.502a7.604 7.604 0 0 0-5.415 2.229l-30.98 30.982a7.605 7.605 0 0 0-2.228 5.416c0 2.055.791 3.977 2.228 5.415l30.98 30.985c2.874 2.872 7.955 2.872 10.83 0L83.268 52.29c2.984-2.986 2.984-7.846 0-10.832L52.285 10.477a7.603 7.603 0 0 0-5.414-2.229z"/><path d="M34.585 47.26s-5.291 26.556 20.002 28.812c-9.608-2.613-9.994-7.87-7.538-15.188.21-.625-12.464-13.623-12.464-13.623zM60.856 47.555s6.152-27.604-18.803-30.826c9.425 2.995 9.643 8.307 6.987 15.59-.228.623 11.816 15.236 11.816 15.236z"/><path d="M47.165 31.179c8.592-.804 16.209 5.508 17.013 14.1.804 8.591-5.509 16.208-14.1 17.012-8.592.804-16.208-5.509-17.012-14.1-.805-8.592 5.508-16.208 14.1-17.012zm1.897 20.258a4.905 4.905 0 1 0-.914-9.767 4.905 4.905 0 0 0 .914 9.767z"/></symbol><symbol viewBox="0 0 30 30" id="markers--weather--Damaging_Winds" xmlns="http://www.w3.org/2000/svg"><path fill="#FFF" d="M15.1 1.3l13.8 13.3L15 29 .8 15.2z"/><path d="M15 30c-1.4 0-2.6-.5-3.6-1.5l-9.9-9.9C.5 17.6 0 16.4 0 15s.5-2.6 1.5-3.6l9.9-9.9C12.4.5 13.6 0 15 0s2.6.5 3.6 1.5l9.9 9.9c2 2 2 5.2 0 7.2l-9.9 9.9c-1 1-2.2 1.5-3.6 1.5zm0-27.4c-.7 0-1.3.3-1.7.7l-9.9 9.9c-.5.5-.7 1.1-.7 1.7 0 .7.3 1.3.7 1.7l9.9 9.9c.9.9 2.5.9 3.5 0l9.9-9.9c1-1 1-2.5 0-3.5l-9.9-9.9c-.5-.3-1.1-.6-1.8-.6z"/><path d="M17.5 21.3c-1.1 0-2.2-.7-2.5-1.6-.2-.4-.4-1.2.2-2.2h-8V16h10.2c.2 0 1.4 0 2.2.7.3.3.7.9.7 1.8 0 1.7-1 2.7-2.8 2.8.1 0 0 0 0 0zm-.5-3.9c-.4.4-1 1-.7 1.7.2.4.7.8 1.3.8.9 0 1.3-.4 1.3-1.3 0-.3-.1-.6-.3-.8-.3-.3-.9-.3-1.1-.3H17z"/><path d="M20.6 19.2l-.1-1.4c1.3-.1 1.3-1.1 1.3-1.3 0-.3-.1-.5-.3-.6-.6-.5-1.8-.5-2.1-.5H7.2V14h12.2c.3 0 2.1-.1 3.1.8.5.4.8 1 .8 1.6.1 1.9-1.5 2.7-2.7 2.8zM17.7 13.2c-.1 0-.1 0 0 0H7.2v-1.4h10.5s.6 0 1-.4c.2-.2.3-.5.3-.9 0-.6-.2-.9-.6-1.1-.5-.2-1.1-.1-1.3.1-.8.7-.8 1.7-.8 1.7h-1.4c0-.1 0-1.7 1.3-2.8.7-.6 1.9-.7 2.9-.3.9.4 1.5 1.3 1.5 2.4 0 1-.4 1.6-.8 2-.9.6-1.8.7-2.1.7z"/></symbol><symbol viewBox="0 0 30 30" id="markers--weather--Fire_Danger_Ratings" xmlns="http://www.w3.org/2000/svg"><path fill="#FFF" d="M15 1.9C7.8 1.9 1.9 7.8 1.9 15S7.8 28.1 15 28.1 28.1 22.2 28.1 15 22.2 1.9 15 1.9z"/><path d="M15 0C6.8 0 0 6.8 0 15s6.8 15 15 15 15-6.8 15-15S23.2 0 15 0zm0 28.1C7.8 28.1 1.9 22.2 1.9 15S7.8 1.9 15 1.9 28.1 7.8 28.1 15 22.2 28.1 15 28.1z"/><g fill="#231F20"><path d="M16.8 13.6c.7.5 1.4 1.1 1.7 2.1l5.8-4.1c-1.1-1.8-2.8-3.1-4.7-4l-2.8 6zM26.2 17.8c0-2-.5-3.8-1.4-5.4l-6.1 4.3v.2c0 .3-.1.7-.1.9h7.6zM11.4 15.7c.3-.9.9-1.7 1.8-2.2l-2.8-6c-2 .9-3.6 2.3-4.8 4.1l5.8 4.1zM14.2 13.2c.3-.1.6-.1.8-.1.4 0 .7.1.9.1l2.8-6c-1.1-.4-2.4-.7-3.8-.7s-2.5.2-3.7.7l3 6zM11.2 16.9v-.2l-6.1-4.3c-.9 1.6-1.4 3.5-1.4 5.4h7.6c0-.3-.1-.6-.1-.9z"/></g><path d="M15.7 22.7c-.4-.6-.2-1.6-.3-1.6-2.3.4-1.6 3.1-1.6 3.1-4.4-2.9-.9-5.7-.1-6.6.8-.8.9-2.7.9-2.7 1.8 1.3.9 4.3 1 4.2.9 0 1.3-1.3 1.3-1.3 3.5 4.8-.9 6.5-.9 6.5.2-1.1.1-1.1-.3-1.6z"/></symbol><symbol viewBox="0 0 30 30" id="markers--weather--Flood" xmlns="http://www.w3.org/2000/svg"><path fill="#FFF" d="M15 1.3l13.7 13.4-13.9 14.4L.6 15.3z"/><path d="M8.9 14.5h12.3v5.7H8.9z"/><path d="M6 14.9l8.9-7.5 8.8 7.5z"/><path d="M9.2 8.7h2v3.9h-2z"/><path fill="#FFF" d="M13.3 15.2h3.4v3.7h-3.4z"/><path d="M6.9 21.9l7.7 7 8-6.7-1.9-1.8-7.9-.1-7.5 1z"/><path d="M11.5 21.9c-.3 0-.7-.1-1-.2l-2.6-1.2-2.5.8-.7-2.3 2.5-.9c.5-.1 1.2-.1 1.7.1l2.6 1.2 2.8-1c.5-.2 1.1-.2 1.6 0l2.8 1h.1l2.4-.9c.5-.2 1.1-.2 1.6-.1l2.5.7-.7 2.3-2.5-.7H22l-2.4.9c-.5.2-1.1.2-1.6 0l-2.8-1h-.1l-2.8 1c-.3.2-.5.3-.8.3z"/><path fill="#FFF" d="M11.6 23.4c-.3 0-.7-.1-1-.2l-2.2-1-2.1.7-.8-2.3 2.2-.7c.5-.2 1.2-.1 1.7.1l2.2 1 2.3-.9c.5-.2 1.1-.2 1.6 0l2.4.8h.1l2-.7c.5-.2 1.1-.2 1.6-.1l2.2.6-.7 2.3-2.1-.6h-.1l-2 .8c-.5.2-1.1.2-1.6 0l-2.4-.8h-.1l-2.4.9c-.3.1-.5.1-.8.1z"/><path d="M15 30c-1.4 0-2.6-.5-3.6-1.5l-9.9-9.9C.5 17.6 0 16.4 0 15s.5-2.6 1.5-3.6l9.9-9.9C12.4.5 13.6 0 15 0s2.6.5 3.6 1.5l9.9 9.9c2 2 2 5.2 0 7.2l-9.9 9.9c-1 1-2.2 1.5-3.6 1.5zm0-27.4c-.7 0-1.3.3-1.7.7l-9.9 9.9c-.5.5-.7 1.1-.7 1.7s.3 1.3.7 1.7l9.9 9.9c.9.9 2.5.9 3.5 0l9.9-9.9c1-1 1-2.5 0-3.5l-9.9-9.9c-.5-.3-1.1-.6-1.8-.6z"/></symbol><symbol viewBox="0 0 30 30" id="markers--weather--Gauge" xmlns="http://www.w3.org/2000/svg"><path fill="#FFF" d="M28.1 15c0-7.2-5.9-13.1-13.1-13.1S1.9 7.8 1.9 15"/><path d="M15 0C6.8 0 0 6.8 0 15s6.8 15 15 15 15-6.8 15-15S23.2 0 15 0zm0 1.9c7.2 0 13.1 5.9 13.1 13.1 0 2.1-.5 4-1.3 5.7-.7-.1-1.2-.3-1.5-.6-.5-.4-1.2-.9-2.5-.9-1.4 0-2.1.5-2.5.9-.4.3-.7.6-1.4.6V5.6h-7.5v15c-.2.1-.5.1-.9.1-.9 0-1.2-.3-1.7-.7-.5-.4-1-.9-2.4-.9s-1.7.5-2.2.9c-.3.2-.7.4-1 .5C2.5 18.9 2 17 2 15 1.9 7.8 7.8 1.9 15 1.9zm2.8 7.5v1.9H15v1.9h2.8V15H15v1.9h2.8v3.8c-.5-.1-.7-.3-.9-.6-.5-.4-1-.9-2.4-.9-1.2 0-1.8.4-2.2.8V6.6h5.6v.9H15v1.9h2.8zm7 14.2c-.5-.3-1.1-.7-2.2-.7-1.4 0-2.1.5-2.5.9-.4.4-.8.7-1.7.7s-1.2-.3-1.7-.7c-.5-.4-1-.9-2.4-.9s-2 .5-2.4.9c-.4.4-.8.7-1.7.7s-1.2-.2-1.7-.6c-.5-.4-1-.9-2.4-.9-.8 0-1.1.1-1.4.4-.4-.5-.7-.9-1-1.4.5-.2.8-.5 1-.8.4-.4.6-.6 1.5-.6.8 0 1.1.3 1.5.6.5.5 1 .9 2.5.9 1.4 0 2.1-.6 2.5-.9.4-.4.7-.6 1.5-.6s1.1.3 1.5.6c.5.5 1.1.9 2.5.9s2.1-.6 2.5-.9c.4-.4.7-.6 1.5-.6s1.4.3 1.8.6c.4.3.8.7 1.7.8 0 .6-.4 1.1-.9 1.6z"/></symbol><symbol viewBox="0 0 30 30" id="markers--weather--Storm" xmlns="http://www.w3.org/2000/svg"><path fill="#FFF" d="M15 1.3l13.7 13.3L14.8 29 .6 15.2z"/><path d="M15 30c-1.4 0-2.6-.5-3.6-1.5l-9.9-9.9C.5 17.6 0 16.4 0 15s.5-2.6 1.5-3.6l9.9-9.9C12.4.5 13.6 0 15 0s2.6.5 3.6 1.5l9.9 9.9c2 2 2 5.2 0 7.2l-9.9 9.9c-1 1-2.2 1.5-3.6 1.5zm0-27.4c-.7 0-1.3.3-1.7.7l-9.9 9.9c-.5.5-.7 1.1-.7 1.7 0 .7.3 1.3.7 1.7l9.9 9.9c.9.9 2.5.9 3.5 0l9.9-9.9c1-1 1-2.5 0-3.5l-9.9-9.9c-.5-.3-1.1-.6-1.8-.6z"/><path d="M9 10.7c.1-.1.2-.1.2-.3.5-1.7 2.3-2.6 4-2 .2.1.2 0 .3-.1.9-1.3 2.2-1.9 3.8-1.7 1.9.3 3.2 1.9 3.2 3.8 0 .2 0 .2.2.3 1.1.5 1.6 1.8 1.4 2.9-.3 1.3-1.4 2.2-2.7 2.2H9.8c-1.2-.2-2.1-1.1-2.3-2.4-.2-1 .4-2.2 1.5-2.7zM18.1 16.3c-.1.1-3 2.4-3.1 2.5h2c0 .1-5.2 4.2-5.3 4.3-.1-.2 1.5-2 1.8-3.1-.6 0-2.4.1-3 .1 0 .1 3.5-3.7 3.5-3.7"/></symbol><symbol viewBox="0 0 30 30" id="markers--weather--Temperature" xmlns="http://www.w3.org/2000/svg"><circle fill="#FFF" cx="15" cy="15" r="14.1"/><path d="M15 30C6.8 30 0 23.2 0 15S6.8 0 15 0s15 6.8 15 15-6.8 15-15 15zm0-28.1C7.8 1.9 1.9 7.8 1.9 15S7.8 28.1 15 28.1 28.1 22.2 28.1 15 22.2 1.9 15 1.9z"/><path d="M16.9 15.6v-10h-3.8v9.9c-1.7.8-2.8 2.3-2.8 4.3 0 2.6 2.1 4.7 4.7 4.7s4.7-2.1 4.7-4.7c0-1.8-1.1-3.5-2.8-4.2zm-1-5.3H14V6.6h1.9v3.7z"/></symbol><symbol viewBox="0 0 30 30" id="markers--weather--Tsunami" xmlns="http://www.w3.org/2000/svg"><path fill="#FFF" d="M15.1 1.3l13.8 13.3L15 29.1.8 15.2z"/><path d="M15 30c-1.4 0-2.6-.5-3.6-1.5l-9.9-9.9C.5 17.6 0 16.4 0 15s.5-2.6 1.5-3.6l9.9-9.9C12.4.5 13.6 0 15 0s2.6.5 3.6 1.5l9.9 9.9c2 2 2 5.2 0 7.2l-9.9 9.9c-1 1-2.2 1.5-3.6 1.5zm0-27.4c-.7 0-1.3.3-1.7.7l-9.9 9.9c-.5.5-.7 1.1-.7 1.7 0 .7.3 1.3.7 1.7l9.9 9.9c.9.9 2.5.9 3.5 0l9.9-9.9c1-1 1-2.5 0-3.5l-9.9-9.9c-.5-.3-1.1-.6-1.8-.6z"/><path d="M24.8 20.1S14.1 21.5 13.9 17c-.1-3.5 2.3-4 3.1-4.3 2.5-.8 5.2.8 6.7 2 1.1 1-4.2-7.1-9.4-5.7-7.9 2.2-9.4 6.6-13.7 6l14.1 13.4 10.1-8.3z"/></symbol><symbol viewBox="0 0 32 32" id="markers--weather--Wind_Direction" xmlns="http://www.w3.org/2000/svg"><circle fill="#FFF" cx="16" cy="16" r="15"/><path d="M16 0C7.2 0 0 7.2 0 16s7.2 16 16 16 16-7.2 16-16S24.8 0 16 0zm1 29.9V24h8v-2h-8v-1.8c.5 0 1-.1 1.5-.2 1.2-.3 2.1-1 2.9-1.9.1-.2.3-.4.4-.6.4-.6.7-1.2.9-1.9.1-.4.2-.7.2-1.1 0-.3.1-.5.1-.8 0-.1.1-.3 0-.4-.1-.1-.4 0-.4.2v-.2-.4c0-.1.1-.3 0-.5-.1-.1-.2.1-.2.2-.1.2-.1.3-.2.4 0 0-.1.1-.1 0 0-.4.1-.7.1-1v-.5-.2c-.1-.1-.2.2-.2.3 0 .2-.1.7-.4.8 0-.2.1-.4.1-.6V11c0-.2 0-.4-.2-.6v.1c-.2 1-.4 1.9-1.1 2.7-.4.5-.9.8-1.5.9-.7.1-1.3.1-2 0-1.3-.2-2.4-.9-3-2.2-.1-.3-.2-.5-.3-.8 0-.2-.2-.6-.1-.8.1-.2.7-.3.9-.5.3-.2.6-.5.7-.8 0 .1-1 .1-1 .1-.1 0-.7.1-.4-.2.6-.3 1.2-.9 1.2-1.5 0 .1-.7.3-.8.3-.3.1-.5.1-.5-.3 0-.3.3-.9 0-1.1-.1-.1-.1-.1-.2 0-.3.1-.7.5-.9.2 0-.1.1-.8-.1-.7-.2.1-1 1.5-1.1.9 0-.1.2-.8-.2-.6-.3.1-.3.6-.4.8 0 .1-.1.8-.3.8-.5.4-.5-.6-.6-.3-.2.5-.3 1.1-.1 1.6 0 .2.1.4 0 .5-.2.1-.3.2-.4.3-.1.1-.3.2-.3.3 0 .1.2.1.3.1.2 0 .8 0 .7.3-.1.3-.3.6-.1.9.2.2.5.1.6-.1.1-.2 0-.4-.1-.6.2.2.4.4.5.6.3.7.2 1.4.1 2.1-.2 1-.2 1.9 0 2.9.4 1.7 1.5 2.8 3 3.5.3.1.7.3 1 .3v2h-4v-1.8L7 23l4 2.7V24h4v5.9C7.7 29.4 2 23.4 2 16 2 8.3 8.3 2 16 2s14 6.3 14 14c0 7.4-5.7 13.4-13 13.9z"/></symbol></svg>